<svg height="24" viewBox="0 0 24 24" width="24" xmlns="http://www.w3.org/2000/svg"><path d="m0 0h24v24h-24z" fill="none"/><path d="m17.5 7.328c.012.173.012.346.012.52a11.293 11.293 0 0 1 -11.375 11.37 11.294 11.294 0 0 1 -6.137-1.794 8.268 8.268 0 0 0 .965.049 8 8 0 0 0 4.962-1.707 4 4 0 0 1 -3.737-2.771 5.04 5.04 0 0 0 .755.062 4.227 4.227 0 0 0 1.055-.137 4 4 0 0 1 -3.208-3.92v-.051a4.025 4.025 0 0 0 1.808.507 4 4 0 0 1 -1.239-5.345 11.36 11.36 0 0 0 8.239 4.182 4.512 4.512 0 0 1 -.1-.916 4 4 0 0 1 6.917-2.734 7.868 7.868 0 0 0 2.536-.965 3.986 3.986 0 0 1 -1.753 2.202 8.012 8.012 0 0 0 2.3-.619 8.591 8.591 0 0 1 -2 2.066z" fill="#222" transform="translate(3 1.119)"/></svg>