<svg height="24" viewBox="0 0 24 24" width="24" xmlns="http://www.w3.org/2000/svg"><path d="m0 0h24v24h-24z" fill="none"/><path d="m9 6.622a4.614 4.614 0 1 0 4.614 4.614 4.607 4.607 0 0 0 -4.614-4.614zm0 7.614a3 3 0 1 1 3-3 3.005 3.005 0 0 1 -3 2.999zm5.879-7.8a1.076 1.076 0 1 1 -1.079-1.079 1.074 1.074 0 0 1 1.076 1.076zm3.056 1.092a5.326 5.326 0 0 0 -1.454-3.771 5.361 5.361 0 0 0 -3.774-1.457c-1.486-.084-5.939-.084-7.425 0a5.353 5.353 0 0 0 -3.771 1.45 5.343 5.343 0 0 0 -1.453 3.771c-.084 1.486-.084 5.939 0 7.425a5.326 5.326 0 0 0 1.454 3.771 5.368 5.368 0 0 0 3.77 1.453c1.486.084 5.939.084 7.425 0a5.326 5.326 0 0 0 3.771-1.454 5.361 5.361 0 0 0 1.454-3.771c.084-1.486.084-5.935 0-7.421zm-1.923 9.012a3.037 3.037 0 0 1 -1.712 1.711c-1.185.47-4 .361-5.3.361s-4.124.1-5.3-.361a3.037 3.037 0 0 1 -1.719-1.711c-.47-1.185-.361-4-.361-5.3s-.1-4.124.361-5.3a3.037 3.037 0 0 1 1.711-1.72c1.185-.47 4-.361 5.3-.361s4.124-.1 5.3.361a3.037 3.037 0 0 1 1.711 1.711c.47 1.185.361 4 .361 5.3s.118 4.129-.352 5.309z" fill="#fff" transform="translate(4.005 .762)"/></svg>