<svg height="24" viewBox="0 0 24 24" width="24" xmlns="http://www.w3.org/2000/svg"><path d="m0 0h24v24h-24z" fill="none"/><path d="m21.611 6.81a2.639 2.639 0 0 0 -1.857-1.869c-1.638-.442-8.2-.442-8.2-.442s-6.567 0-8.2.442a2.639 2.639 0 0 0 -1.865 1.869 27.681 27.681 0 0 0 -.439 5.09 27.681 27.681 0 0 0 .439 5.087 2.6 2.6 0 0 0 1.857 1.839c1.638.442 8.2.442 8.2.442s6.567 0 8.2-.442a2.6 2.6 0 0 0 1.857-1.839 27.681 27.681 0 0 0 .447-5.087 27.681 27.681 0 0 0 -.439-5.087zm-12.211 8.21v-6.245l5.491 3.125z" fill="#222" transform="translate(.95)"/></svg>