<svg height="138.189" viewBox="0 0 265.321 138.189" width="265.321" xmlns="http://www.w3.org/2000/svg"><g fill="#222"><path d="m120.724 120.518a340.091 340.091 0 0 0 37.231-1.882c.618-.078 1.442-.175 2.4-.287a352.7 352.7 0 0 0 40.8-6.9c21.374-5.135 36.528-11.891 45.042-20.082a36.557 36.557 0 0 0 8.754-13.054 37.384 37.384 0 0 0 2.028-7.246 38.321 38.321 0 0 0 -2.579-21.744 34.834 34.834 0 0 0 -3.567-6.3 31.915 31.915 0 0 0 -4.807-5.347 89.818 89.818 0 0 0 -10.487-8.34 61.074 61.074 0 0 0 -15.333-7.136 131.168 131.168 0 0 0 -25.156-4.937 365.3 365.3 0 0 0 -40.032-1.846c-5.272 0-10.909.07-16.754.209h-.014c-.349.017-35.128 1.714-63.585 3.627-3.049-4.78-8.055-9.188-14.884-13.105a80.71 80.71 0 0 0 -13.55-6.118.56.56 0 0 0 -.385 1.052c3.441 1.341 6.085 4.16 7.859 8.379a35.928 35.928 0 0 1 2.433 11.161c-7.68.638-12.917 1.188-16 1.682a50 50 0 0 0 -27.572 13.528 43.255 43.255 0 0 0 -8.224 11.263 40.313 40.313 0 0 0 -4 12.891 38.488 38.488 0 0 0 5.281 25.107 45.451 45.451 0 0 0 9.56 11.138 60.683 60.683 0 0 0 14.548 9.027c12.516 5.617 27.9 9.75 45.728 12.286a323.675 323.675 0 0 0 45.265 2.974zm34.294-103.976a364.216 364.216 0 0 1 39.908 1.839 130.089 130.089 0 0 1 24.94 4.891 59.988 59.988 0 0 1 15.062 7 88.935 88.935 0 0 1 10.358 8.242 30.789 30.789 0 0 1 4.638 5.159 33.708 33.708 0 0 1 3.452 6.1 37.081 37.081 0 0 1 3.037 13.947 36.479 36.479 0 0 1 -2.507 14.188 35.445 35.445 0 0 1 -8.488 12.657c-4.536 4.364-11.109 8.368-19.536 11.9a165.258 165.258 0 0 1 -24.991 7.9 351.646 351.646 0 0 1 -40.671 6.874c-.957.113-1.783.21-2.406.288a338.844 338.844 0 0 1 -37.091 1.873c-46.9 0-75.122-8.245-90.535-15.161a59.566 59.566 0 0 1 -14.28-8.858 44.334 44.334 0 0 1 -9.325-10.865 37.379 37.379 0 0 1 -5.135-24.383 39.2 39.2 0 0 1 3.894-12.533 42.137 42.137 0 0 1 8.012-10.971 48.887 48.887 0 0 1 26.964-13.219c3.081-.494 8.62-1.071 16.463-1.717a.56.56 0 0 0 .513-.594 37.633 37.633 0 0 0 -2.556-12.072 18.233 18.233 0 0 0 -3.963-6.058c6.932 2.917 17.811 8.6 23.118 17.166a.559.559 0 0 0 .514.264c28.378-1.912 63.23-3.615 63.891-3.647 5.833-.14 11.459-.21 16.72-.21z" transform="matrix(-.998 .07 -.07 -.998 265.321 120.224)"/><path d="m-65.391-.234-.469-.234a2.05 2.05 0 0 1 -.234-.4.849.849 0 0 1 -.047-.492 3.42 3.42 0 0 0 .164-.926q.023-.5.023-.973l-.046-.141.047-.609-.047-.046v-2.859l-.047-.7.047-.286a6.46 6.46 0 0 1 -.117-.961 1.812 1.812 0 0 0 -.211-.82l-1.031 1.361-.234.094-.609.75-.234.234-.516.328-.094.234-.234.234-.469.375-.328.281a1.834 1.834 0 0 1 -.422.234.946.946 0 0 1 -.516.047l-.469-.234a1.4 1.4 0 0 1 -.211-.4.855.855 0 0 1 -.023-.445l.234-.469.984-.843.281-.281a8.826 8.826 0 0 0 .727-.609 5.361 5.361 0 0 0 .633-.7q1.172-1.406 2.344-2.789a16.254 16.254 0 0 0 2.016-3 3.819 3.819 0 0 0 .234-.586 2.243 2.243 0 0 1 .281-.586 1.4 1.4 0 0 1 .4-.211.855.855 0 0 1 .445-.023l.469.234a1.4 1.4 0 0 1 .211.4.855.855 0 0 1 .023.445 7.682 7.682 0 0 1 -.234.762 4.62 4.62 0 0 1 -.328.715l-.141.094-.8 1.359h-.094a4.159 4.159 0 0 1 -.445.773q-.258.352-.492.727l.234.094a6.1 6.1 0 0 1 .422 1.711q.094.914.141 1.852l-.047.469.047.047v2.803l.047 1.8q-.047.516-.117 1.008a2.632 2.632 0 0 1 -.3.914 1.4 1.4 0 0 1 -.4.211.855.855 0 0 1 -.448.033zm14.344-1.946q-.234-.047-.492-.117a1.307 1.307 0 0 1 -.445-.211 1.4 1.4 0 0 1 -.211-.4.855.855 0 0 1 -.023-.445l.234-.469a12.433 12.433 0 0 0 4.384-1.287 16.124 16.124 0 0 0 3.82-2.7l1.547-1.547.867-.75a.624.624 0 0 1 .07-.281 2.62 2.62 0 0 1 .164-.281.986.986 0 0 1 .445-.258 1.247 1.247 0 0 1 .539-.023l.469.234a1.4 1.4 0 0 1 .211.4.855.855 0 0 1 .023.445 1.851 1.851 0 0 1 -.281.586q-.187.258-.375.539h-.099v.094l-.562.516-.422.469-.141.141q-.727.563-1.383 1.148t-1.312 1.242a22.287 22.287 0 0 1 -3.328 1.945 11.04 11.04 0 0 1 -3.699 1.01zm1.5-8.719-.469-.234-1.453-1.312-.8-.7a1.4 1.4 0 0 1 -.211-.4.936.936 0 0 1 -.023-.469l.234-.469a1.4 1.4 0 0 1 .4-.211.855.855 0 0 1 .445-.023 1.514 1.514 0 0 1 .609.352l.563.516.047.141 1.453 1.172a1.834 1.834 0 0 1 .234.422.946.946 0 0 1 .047.516l-.234.469a1.4 1.4 0 0 1 -.4.211.855.855 0 0 1 -.442.018zm16.266 8.367-.469-.258a1.4 1.4 0 0 1 -.211-.4.855.855 0 0 1 -.023-.445.951.951 0 0 1 .234-.445q.188-.211.328-.4 1.969-1.922 3.75-4.031a48.167 48.167 0 0 0 3.281-4.359v-.141h-.937q-1.359.094-2.672.211a15.884 15.884 0 0 0 -2.578.445l-.469-.234a1.4 1.4 0 0 1 -.211-.4.855.855 0 0 1 -.023-.445l.234-.469a10.188 10.188 0 0 1 3.445-.809q1.8-.105 3.633-.152a3.082 3.082 0 0 1 .75.094 1.491 1.491 0 0 1 .656.352 1.613 1.613 0 0 1 .281.539 1.436 1.436 0 0 1 .047.633 7.541 7.541 0 0 1 -.609 1.359q-.375.656-.8 1.266h-.094l-.234.422h-.094l-.328.609h-.094l-.234.422a5.4 5.4 0 0 0 -.445.4 1.243 1.243 0 0 0 -.3.492l.328.188a1.734 1.734 0 0 0 .563.445q.328.164.656.352v.091l.422.234 1.313.891.375.328a4.37 4.37 0 0 0 .7.492 6.849 6.849 0 0 1 .75.492l.492.563.047.609-.234.469a1.775 1.775 0 0 1 -.422.211.855.855 0 0 1 -.445.023l-.656-.375q-1.122-.837-2.274-1.682a25.619 25.619 0 0 0 -2.367-1.547l-.422-.422-1.5 1.781-.984 1.033-.422.469-.187.188-.281.141v.094l-.141.141a3.426 3.426 0 0 1 -.492.41.891.891 0 0 1 -.633.126zm21.422 2.813-.469-.234a1.4 1.4 0 0 1 -.211-.4 1.019 1.019 0 0 1 -.023-.492 32.787 32.787 0 0 0 1.968-3.315 30.839 30.839 0 0 0 1.547-3.5q-.937-.609-1.9-1.2a7.565 7.565 0 0 0 -2.039-.867l-.141.281a1 1 0 0 1 -.422.258 1.131 1.131 0 0 1 -.516.023l-.469-.234a1.4 1.4 0 0 1 -.211-.4.855.855 0 0 1 -.023-.445 17.072 17.072 0 0 0 1.453-2.531q.609-1.312 1.172-2.648a1.4 1.4 0 0 1 .4-.211.855.855 0 0 1 .445-.023l.469.234.188.281a23.972 23.972 0 0 1 2.6.141 9.929 9.929 0 0 1 2.461.586 1.107 1.107 0 0 1 .258.656q.023.375.023.75a54.6 54.6 0 0 1 -2.18 6.492 37.612 37.612 0 0 1 -3.162 6.095h-.094l-.187.375h-.094v.094a1.4 1.4 0 0 1 -.4.211.855.855 0 0 1 -.443.023zm3.559-9.681v-.094a17.674 17.674 0 0 1 .563-1.758 11.872 11.872 0 0 0 .516-1.758q-.937-.141-1.9-.234a13.43 13.43 0 0 0 -1.945-.047l-.844 1.969a8.713 8.713 0 0 1 1.852.867q.871.541 1.758 1.055zm14.253 9.541-.469-.235a1.4 1.4 0 0 1 -.211-.4.855.855 0 0 1 -.023-.443q1.828-3.07 3.3-5.719a28.539 28.539 0 0 0 2.461-6.117l-2.339-.047-1.687.188-.285-.048-1.825 3.422a2.05 2.05 0 0 1 -.4.234.849.849 0 0 1 -.492.047l-.469-.234a1.4 1.4 0 0 1 -.211-.4.855.855 0 0 1 -.023-.445q.563-1.172 1.2-2.344t1.336-2.32a2.655 2.655 0 0 1 .469-.3.939.939 0 0 1 .563-.07l.469.234.188.3h.328l.75-.117h2.063q.516.07 1.031.188a2.363 2.363 0 0 1 .938.445 1.08 1.08 0 0 1 .258.633q.023.352.023.727a28.722 28.722 0 0 1 -2.466 6.434q-1.524 2.824-3.492 6.012a1.5 1.5 0 0 1 -.445.3.912.912 0 0 1 -.54.075zm8.789-13.758-.516-.281-1.008-.867-.562-.422a1.4 1.4 0 0 1 -.211-.4.855.855 0 0 1 -.023-.445l.234-.469a1.4 1.4 0 0 1 .4-.211 1.019 1.019 0 0 1 .492-.023l.914.516.609.516.375.328v.094l.141.094a.676.676 0 0 1 .211.41 4.364 4.364 0 0 1 .023.457l-.234.469a1.4 1.4 0 0 1 -.4.211.855.855 0 0 1 -.445.023zm1.969-1.945q-.375-.187-.75-.422l-.75-.469a1.4 1.4 0 0 1 -.211-.4.855.855 0 0 1 -.023-.445l.234-.469a1.4 1.4 0 0 1 .4-.211 1.019 1.019 0 0 1 .489-.022l1.313.75a1.5 1.5 0 0 1 .3.445.912.912 0 0 1 .07.539l-.234.469a1.4 1.4 0 0 1 -.4.211.855.855 0 0 1 -.438.024zm10.641 15.093-.469-.231a1.4 1.4 0 0 1 -.211-.4.855.855 0 0 1 -.023-.445l.469-.75.188-.187.8-.867a11.611 11.611 0 0 0 1.172-1.594l1.022-1.69q.234-.7.516-1.383a7.2 7.2 0 0 0 .422-1.43l-.838-.093h-1.923q-1.359.047-2.672.211t-2.578.4a2.319 2.319 0 0 1 -.352-.117 1.89 1.89 0 0 1 -.3-.164 1.4 1.4 0 0 1 -.211-.4.855.855 0 0 1 -.023-.445l.234-.469a15.2 15.2 0 0 1 2.859-.586q1.5-.164 3-.258h1.966q.609.047 1.219.141a2.892 2.892 0 0 1 1.125.422 1.308 1.308 0 0 1 .328.891v1.031q-.422 1.125-.82 2.227a10.824 10.824 0 0 1 -1.052 2.132q-.375.563-.8 1.172t-.844 1.242l-.187.188-.469.516-.187.188-.141.141-.141.141a2.165 2.165 0 0 1 -.492.375.921.921 0 0 1 -.587.091zm-2.344-13.523a2.319 2.319 0 0 1 -.352-.117 1.89 1.89 0 0 1 -.3-.164 1.363 1.363 0 0 1 -.211-.41.9.9 0 0 1 -.023-.457l.234-.469a4.574 4.574 0 0 1 1.758-.328 17.69 17.69 0 0 0 1.852-.094h2.434l.469.234a1.4 1.4 0 0 1 .211.4.855.855 0 0 1 .023.445l-.234.492a.7.7 0 0 1 -.328.188l-.375.094h-2.111zm16.148 10.5a2.319 2.319 0 0 1 -.352-.117 1.89 1.89 0 0 1 -.3-.164 1.125 1.125 0 0 1 -.234-.422 1.789 1.789 0 0 1 -.07-.516 54.454 54.454 0 0 1 2.2-5.32q1.242-2.6 2.742-5.109a1.4 1.4 0 0 1 .4-.211.855.855 0 0 1 .445-.023l.469.234a1.363 1.363 0 0 1 .211.41 1.074 1.074 0 0 1 .023.5q-1.172 2.016-2.227 4.219t-1.947 4.411h.094q1.828-.375 3.609-.75t3.563-.937v-.143a12.169 12.169 0 0 0 -.727-1.1 2.034 2.034 0 0 1 -.4-1.242l.234-.469a1.4 1.4 0 0 1 .4-.211.855.855 0 0 1 .445-.023l.469.234 1.313 2.25h.094l.914 1.453h.094l1.031 1.313a1.337 1.337 0 0 1 .211.422 1.131 1.131 0 0 1 .023.516l-.234.469a1.4 1.4 0 0 1 -.4.211.855.855 0 0 1 -.445.023l-.492-.234-1.406-1.882h-.187a41.64 41.64 0 0 1 -4.758 1.219q-2.414.473-4.805.989zm25.008 2.086a7.125 7.125 0 0 1 -1.172-.281 2.528 2.528 0 0 1 -1.031-.68 8.752 8.752 0 0 1 -1.008-1.664 8 8 0 0 1 -.586-1.852 6.91 6.91 0 0 1 -.82-.141 2.042 2.042 0 0 1 -.727-.328 1.4 1.4 0 0 1 -.211-.4.855.855 0 0 1 -.023-.445l.234-.469a1.4 1.4 0 0 1 .4-.211 1.019 1.019 0 0 1 .492-.023l.469.141v-.75l-.047-1.453.094-.844h-.094l-.8.094-.469-.234a1.4 1.4 0 0 1 -.211-.4.855.855 0 0 1 -.023-.445l.234-.469a1.565 1.565 0 0 1 .75-.281l.844-.094a6.023 6.023 0 0 1 .445-1.723 11.216 11.216 0 0 1 .82-1.582 1.4 1.4 0 0 1 .4-.211.855.855 0 0 1 .445-.023l.469.234a1.4 1.4 0 0 1 .211.4 1.019 1.019 0 0 1 .023.492q-.281.563-.539 1.113a5.809 5.809 0 0 0 -.4 1.16q.563.047 1.125.117a2.61 2.61 0 0 1 1.031.352 1.4 1.4 0 0 1 .211.4 1.019 1.019 0 0 1 .023.492l-.234.469a1.4 1.4 0 0 1 -.4.211.855.855 0 0 1 -.445.023 4.352 4.352 0 0 0 -.773-.211 2.873 2.873 0 0 0 -.82-.023l-.094 2.391.047.656h.328q.516-.187 1.055-.4a3.123 3.123 0 0 1 1.148-.211l.469.234a1.4 1.4 0 0 1 .211.4.855.855 0 0 1 .023.445l-.234.469a11.013 11.013 0 0 1 -1.336.563 7.059 7.059 0 0 1 -1.43.328v.188a8.612 8.612 0 0 0 .469 1.2 7.069 7.069 0 0 0 .656 1.1q.281.141.586.258a1.389 1.389 0 0 0 .68.07 3.3 3.3 0 0 0 1.148-.516 7.4 7.4 0 0 0 1.008-.844q.516-.656.961-1.336a2.719 2.719 0 0 0 .454-1.527l-.052-.423.234-.469a1.337 1.337 0 0 1 .422-.211 1.131 1.131 0 0 1 .516-.02l.492.234a.961.961 0 0 1 .211.539q.023.3.023.633a4.813 4.813 0 0 1 -.785 2.32 14.165 14.165 0 0 1 -1.581 1.991 6.983 6.983 0 0 1 -1.617 1.066 4.383 4.383 0 0 1 -1.899.411zm-144.504 30.664-.492-.187a1.4 1.4 0 0 1 -.246-.387 1.031 1.031 0 0 1 -.059-.48 6.484 6.484 0 0 1 .539-1.02 3.181 3.181 0 0 0 .375-1.137 22.931 22.931 0 0 0 -3.434-.539q-1.746-.141-3.48-.375a2.05 2.05 0 0 1 -.234-.4 1.084 1.084 0 0 1 -.094-.445l.75-3.117a4.1 4.1 0 0 0 -1.008-.105 1.886 1.886 0 0 1 -.937-.223 1.672 1.672 0 0 1 -.223-.4.951.951 0 0 1 -.058-.443l.211-.469a1.04 1.04 0 0 1 .4-.246 1.236 1.236 0 0 1 .516-.059l1.57.117q.188-.75.328-1.535a9.544 9.544 0 0 1 .4-1.512l.422-.211.07-.258a1.765 1.765 0 0 1 .387-.223.89.89 0 0 1 .434-.059q1.852.164 3.738.152a14.007 14.007 0 0 1 3.668.457 1.345 1.345 0 0 1 .246.4.782.782 0 0 1 .031.446q-.07.8-.211 1.605t-.258 1.605a9.263 9.263 0 0 0 1.137.164 2.757 2.757 0 0 1 1.066.3 2.034 2.034 0 0 1 .27.387.858.858 0 0 1 .082.48l-.211.492a1.459 1.459 0 0 1 -.387.234.766.766 0 0 1 -.457.047l-1.852-.281-.609 2.7q.328.07.621.141a2.119 2.119 0 0 1 .574.234 1.4 1.4 0 0 1 .246.387.89.89 0 0 1 .059.434l-.211.492a1.2 1.2 0 0 1 -.387.27 1.031 1.031 0 0 1 -.48.059l-.914-.258a4.667 4.667 0 0 1 -.387 1.3q-.223.41-.691 1.184a2.22 2.22 0 0 1 -.387.234.68.68 0 0 1 -.433.048zm.609-5.016v-.142l.586-2.367a5.653 5.653 0 0 0 -1-.152q-.527-.035-1.043-.035l-.8 2.32zm-4.2-.609v-.094q.234-.539.457-1.078a5.009 5.009 0 0 0 .316-1.125l-1.594-.117q-.187.586-.34 1.148a10.71 10.71 0 0 0 -.246 1.172zm5.18-3.75-.023-.094.328-2.156-1.969-.141a7.215 7.215 0 0 1 -.129 1.137q-.105.527-.2 1.09zm-3.867-.352a9.037 9.037 0 0 1 .2-1.02 6.459 6.459 0 0 0 .176-1.043l-1.687-.07q-.117.539-.223 1.008t-.2 1.008l1.688.164zm-5.25-2.7-.445-.258a1.937 1.937 0 0 1 -.176-.422 1.14 1.14 0 0 1 -.012-.492l.469-.609a11.641 11.641 0 0 0 1.688-1.711 19.843 19.843 0 0 0 1.344-1.87 2.2 2.2 0 0 0 .211-.562 1.777 1.777 0 0 1 .281-.609 2.122 2.122 0 0 1 .41-.152.829.829 0 0 1 .457.012l.422.234a1.008 1.008 0 0 1 .188.563v.609q-.187.328-.375.7t-.352.75l1.453.07.047-.023 3.047.164 2.25.047q.281.07.574.129a1.021 1.021 0 0 1 .527.293 2.419 2.419 0 0 1 .164.469 1.4 1.4 0 0 1 .023.445l-.281.445a1.659 1.659 0 0 1 -.445.211.956.956 0 0 1 -.469.023 2.533 2.533 0 0 0 -.633-.117q-.352-.023-.68-.07l-2.906-.023-1.2-.094-2.437-.07-.445-.117a10.112 10.112 0 0 1 -.656.773 8.638 8.638 0 0 1 -.773.727l-.258.117-.141.234a1.253 1.253 0 0 1 -.422.188 1.069 1.069 0 0 1 -.444.001zm25.336 10.055-.468-.23a3.076 3.076 0 0 1 -.387-1.242q-.059-.656-.105-1.359v-2.438l-.047-1.828a17.36 17.36 0 0 0 .152-3.07 6.824 6.824 0 0 1 .527-2.953 8.637 8.637 0 0 1 2.531-.469q1.313-.047 2.672-.141h4.078a3.3 3.3 0 0 1 .7.164 4.111 4.111 0 0 1 .656.3l.281.281a2.037 2.037 0 0 1 .328.738q.094.41.164.832v2.531l-.023 1.5v3.75l.117 1.781a4.978 4.978 0 0 0 -.047.7 1.026 1.026 0 0 1 -.258.68l-.234.094v.094a1.567 1.567 0 0 1 -1.055.3q-.633-.023-1.242-.023l-2.148-.078-1.312.047-.048-.047h-3.516zm9.281-1.852v-.134l.047-.234-.094-1.219v-2.3h-.281l-1.875.047a3.986 3.986 0 0 0 -.867-.094h-.914l-.328.094h-3.562l-.562-.094v.328l.047.047v2.484l.047 1.031h.281l.047-.047h3.7l1.078.047 1.547-.047zm-.047-5.672v-3.75l-.047-.516-.422-.094h-3.8l-1.969.094q-.984.047-1.969.141l-.141 4.031.8.094h3.047l.234-.094h2.2a3.028 3.028 0 0 0 1.008.117 7.065 7.065 0 0 1 1.008.023zm27.328 9.82a10.4 10.4 0 0 1 -2.121-1.113q-1.02-.691-2-1.395l-.469.469-.633.492-.7.563q-.469.281-.914.539a1.785 1.785 0 0 1 -1.055.211l-.469-.234a1.4 1.4 0 0 1 -.211-.4.855.855 0 0 1 -.023-.445l.234-.469a6.872 6.872 0 0 0 1.453-.785 13.1 13.1 0 0 0 1.359-1.113l.047-.141-.375-.281q-.281-.328-.562-.7a1.085 1.085 0 0 1 -.211-.844l.234-.469a1.857 1.857 0 0 1 .4-.187.855.855 0 0 1 .445-.023l.469.234.375.375a1.7 1.7 0 0 0 .223.34.987.987 0 0 0 .316.246h.141q.516-.516.961-1.043a5.725 5.725 0 0 0 .75-1.137l-.7-.023q-.914.047-1.793.105t-1.723.129q-.234-.047-.445-.094a.7.7 0 0 1 -.375-.234 1.4 1.4 0 0 1 -.211-.4.855.855 0 0 1 -.023-.445l.234-.469a1.4 1.4 0 0 1 .4-.211 1.019 1.019 0 0 1 .492-.023l.141.07q1.2-.141 2.426-.187t2.449-.047q.328.047.691.082a.85.85 0 0 1 .574.27 1.4 1.4 0 0 1 .211.4 1.019 1.019 0 0 1 .023.492q-.281.563-.527 1.148a4.433 4.433 0 0 1 -.645 1.078h-.094l-.352.609h-.094l-.141.281-.75.82v.141l.094.047a4.865 4.865 0 0 0 .973.832q.527.34 1.043.715.328.141.645.281a4.805 4.805 0 0 1 .645.352 1 1 0 0 1 .258.422 1.131 1.131 0 0 1 .023.516l-.234.445a2.492 2.492 0 0 1 -.422.188.855.855 0 0 1 -.452.026zm-12.422-.234-.469-.234a1.056 1.056 0 0 1 -.187-.375q-.047-.187-.094-.422l.142-1.117v-5.464h-.094a7.127 7.127 0 0 0 -1.312.609 4.233 4.233 0 0 1 -1.336.516l-.469-.234a1.4 1.4 0 0 1 -.211-.4.855.855 0 0 1 -.023-.445l.234-.469a8.2 8.2 0 0 1 1.594-.937 17.515 17.515 0 0 1 1.717-.656l.047-1.641-.047-.279.047-.422h-.094l-2.227.188a4.663 4.663 0 0 0 -.492-.07.855.855 0 0 1 -.445-.164 1.4 1.4 0 0 1 -.211-.4.855.855 0 0 1 -.023-.445l.234-.469a1.4 1.4 0 0 1 .4-.211 3.267 3.267 0 0 1 .492-.117l.375.047 1.992-.234v-.891l-.148-1.665q.047-.234.094-.445a.817.817 0 0 1 .234-.4 1.4 1.4 0 0 1 .4-.211.855.855 0 0 1 .445-.023l.469.234a4.535 4.535 0 0 1 .281 1.605q0 .855.047 1.652h1.13a1.967 1.967 0 0 1 1.031.281 1.4 1.4 0 0 1 .211.4.855.855 0 0 1 .023.445l-.234.469a1.337 1.337 0 0 1 -.422.211 1.789 1.789 0 0 1 -.516.07l-1.031-.047-.187.047v1.688h.094a1.884 1.884 0 0 1 .516-.211 2.508 2.508 0 0 1 .609-.07l.469.234a1.4 1.4 0 0 1 .211.4.855.855 0 0 1 .023.445l-.281.516a6.19 6.19 0 0 1 -.867.4q-.445.164-.914.352v6.4q-.047.469-.094.914a1.9 1.9 0 0 1 -.281.82 1.4 1.4 0 0 1 -.4.211.855.855 0 0 1 -.447.019zm11.578-9.539-.445-.258a12.584 12.584 0 0 1 -.973-2.836 12.738 12.738 0 0 1 -.223-3.117l-.422-.023a4.883 4.883 0 0 1 -1.184.094 5.145 5.145 0 0 0 -1.207.094l-.023 1.055v.984q-.211.961-.457 1.887a10.6 10.6 0 0 1 -.668 1.816 1.857 1.857 0 0 1 -.4.188.722.722 0 0 1 -.445 0l-.469-.234a1.419 1.419 0 0 1 -.2-.445 1.054 1.054 0 0 1 .012-.516q.258-.867.527-1.746a7.558 7.558 0 0 0 .316-1.863q0-.492-.047-1.031t-.117-1.008l.258-.445.234-.234a13.652 13.652 0 0 1 2.52-.328q1.277-.047 2.59-.047l.7.352q.3 1.8.469 3.527a15.7 15.7 0 0 0 .75 3.48l-.258.445a1.193 1.193 0 0 1 -.4.2.948.948 0 0 1 -.433.014zm25.365 10.06-.492-.281a2.22 2.22 0 0 1 -.235-.388.706.706 0 0 1 -.024-.48 5.332 5.332 0 0 0 .246-1.207q.059-.645.176-1.254l.048-1.945a6.858 6.858 0 0 1 -.2-1.031 3.289 3.289 0 0 0 -.27-.983.716.716 0 0 0 -.539-.117.784.784 0 0 1 -.539-.094l-2.766-.07a15.42 15.42 0 0 1 -2.086.094 8.77 8.77 0 0 0 -2.039.188l-.094 1.5.047.469-.07.188.047.469-.14 1.873.094 2.109-.234.469a1.511 1.511 0 0 1 -.4.176.948.948 0 0 1 -.445.012l-.516-.281a5.452 5.452 0 0 1 -.3-1.863q0-1.02.023-2l.094-.727-.023-1.219.086-1.646-.047-.141a1.712 1.712 0 0 1 .129-.352 1.582 1.582 0 0 1 .176-.281l.609-.281.047-.094a12.426 12.426 0 0 1 3.023-.387q1.57-.012 3.164-.129 1.031.07 2.086.117a3.536 3.536 0 0 1 1.9.633v.094h.094a4.867 4.867 0 0 1 .7 1.887q.164 1.043.234 2.074-.015 1.243-.158 2.45a9.114 9.114 0 0 1 -.539 2.238 1.775 1.775 0 0 1 -.418.211.722.722 0 0 1 -.449 0zm-13.641-.516-.469-.234a.632.632 0 0 1 -.211-.352q-.047-.211-.094-.4l.047-.375-.094-.8v-2.034l.047-.047v-1.875l-.047-.469h-.089l-.609.891h-.094l-.187.375-.422.375-.187.188q-.234.141-.469.258a.822.822 0 0 1 -.516.07l-.469-.234a1.4 1.4 0 0 1 -.211-.4 1.019 1.019 0 0 1 -.023-.492l.234-.469a1.044 1.044 0 0 0 .328-.258 1.723 1.723 0 0 0 .234-.352 3.265 3.265 0 0 0 .656-.656q.281-.375.516-.75.281-.609.539-1.2t.492-1.2h-.328q-.469.141-.891.3a2.045 2.045 0 0 1 -.937.117l-.469-.234a1.4 1.4 0 0 1 -.211-.4.855.855 0 0 1 -.023-.445l.234-.469a7.862 7.862 0 0 1 1.477-.516q.773-.187 1.523-.375v-.8l-.047-.187.047-.187h-.141a.729.729 0 0 1 -.3.117 2.489 2.489 0 0 1 -.352.023l-.469-.234a1.4 1.4 0 0 1 -.211-.4.855.855 0 0 1 -.023-.445l.234-.492 1.125-.891 1.289-.891a1.337 1.337 0 0 1 .422-.211 1.131 1.131 0 0 1 .516-.023l.469.234a1.4 1.4 0 0 1 .211.4 1.019 1.019 0 0 1 .023.492l-.234.469-.562.281v.094l-.141.094v2.32h.469l1.125-.094.469.234a1.4 1.4 0 0 1 .211.4 1.019 1.019 0 0 1 .023.492l-.234.469a1.406 1.406 0 0 1 -.867.281q-.492 0-.961.047v.117l.141.094.422.469v.094l.656.422.422.328a2.05 2.05 0 0 1 .234.4.849.849 0 0 1 .047.492l-.234.469a1.4 1.4 0 0 1 -.4.211.855.855 0 0 1 -.445.023 1.7 1.7 0 0 1 -.539-.3 1.7 1.7 0 0 0 -.539-.3l-.094 1.969a1.376 1.376 0 0 1 .094.516v.563l-.047.844.047.422a1.376 1.376 0 0 0 -.094.516v.563l.047.445-.047.188a2.64 2.64 0 0 1 .094.727v.773l-.281.609a1.4 1.4 0 0 1 -.4.211.855.855 0 0 1 -.452.005zm9.141-.562a3.288 3.288 0 0 0 -1.266-.141 2.193 2.193 0 0 1 -1.219-.234l-.281-.281a2.067 2.067 0 0 1 -.211-.469 4.2 4.2 0 0 1 -.117-.516v-2.227l-.094-1.031.234-.469h.094a.259.259 0 0 1 .047-.258 1.229 1.229 0 0 0 .141-.211 1.244 1.244 0 0 1 .891-.234 3.419 3.419 0 0 0 .984-.047q.609.047 1.219.047a1.833 1.833 0 0 1 1.078.328l.516.563a9.495 9.495 0 0 1 .188 1.359q.047.7.117 1.406l-.117.492.047.422-.047.328.047.422-.234.469a1.4 1.4 0 0 1 -.4.211.855.855 0 0 1 -.445.023l-.141-.047a1.313 1.313 0 0 1 -.492.094zm.375-1.828v-.914l.047-.609-.094-.891h-1.641v.234l.047.047v1.992q.422 0 .844.023a4.254 4.254 0 0 1 .797.118zm-3.8-7.1a2.319 2.319 0 0 1 -.352-.117 1.89 1.89 0 0 1 -.3-.164 5.846 5.846 0 0 1 -.352-1.9q-.023-1.008-.07-1.992a2.319 2.319 0 0 1 .117-.352 1.89 1.89 0 0 1 .164-.3 1.672 1.672 0 0 1 .4-.223.668.668 0 0 1 .445-.012l.656.047 2.3-.211q.656.094 1.313.176a3.175 3.175 0 0 1 1.219.41v.094h.094a.941.941 0 0 1 .258.656 6.041 6.041 0 0 0 .047.75l-.047.8.047.422a3.3 3.3 0 0 0 -.117.7 1.042 1.042 0 0 1 -.281.656.994.994 0 0 1 -.656.234h-.75l-.7-.047-.061.043h-2.152a1.344 1.344 0 0 0 -.609.141 1.978 1.978 0 0 1 -.61.187zm4.031-2.2v-.984l-1.687-.141-1.547.141v.141l.094.891.234.047q.563-.047 1.172-.047a7.12 7.12 0 0 0 1.177-.1zm-5.857-3.029-.468-.234a2.05 2.05 0 0 1 -.234-.4.849.849 0 0 1 -.047-.492l.234-.469a3.525 3.525 0 0 1 1.664-.439q.914-.023 1.8-.117v-.234q-.141-.281-.3-.562a1.018 1.018 0 0 1 -.117-.656l.234-.469a1.4 1.4 0 0 1 .4-.211.855.855 0 0 1 .445-.023l.469.234a4.367 4.367 0 0 1 .539.891 3.056 3.056 0 0 1 .258.984l.75.047 1.734-.047a2.064 2.064 0 0 0 .773.141 1.061 1.061 0 0 1 .7.234 1.337 1.337 0 0 1 .211.422 1.131 1.131 0 0 1 .023.516l-.234.469a1.4 1.4 0 0 1 -.4.211 1.019 1.019 0 0 1 -.492.023q-.539-.094-1.078-.164a5.173 5.173 0 0 0 -1.1-.023l-.047.047h-3.044a7.72 7.72 0 0 0 -1.359.117q-.657.111-1.314.204zm23.016 12.8a20.251 20.251 0 0 1 -2-.469 3.506 3.506 0 0 1 -1.7-1.125 8.4 8.4 0 0 1 -1.477-4.125q-.187-2.25-.375-5.953a3.05 3.05 0 0 1 .129-.457 1.6 1.6 0 0 1 .223-.41 1.177 1.177 0 0 1 .41-.2.908.908 0 0 1 .434-.012l.469.258a1.177 1.177 0 0 1 .2.41.908.908 0 0 1 .012.434l.07 2.953q.141 1.43.293 2.871a8.41 8.41 0 0 0 .762 2.73l.094.047.352.4a.654.654 0 0 0 .258.223 1.582 1.582 0 0 1 .281.176q.609.164 1.242.3a5.444 5.444 0 0 0 1.359.117 6.976 6.976 0 0 0 2.414-.75q.961-.539 1.477-.879a1.091 1.091 0 0 1 1.078-.105 2.492 2.492 0 0 1 .188.422.875.875 0 0 1 0 .492l-.258.445a13.7 13.7 0 0 1 -2.66 1.605 7.642 7.642 0 0 1 -3.275.599zm20.227.047-.562-.328a6.9 6.9 0 0 1 -1.148-2.3 9.508 9.508 0 0 1 -.352-2.6 11.171 11.171 0 0 1 .656-2.508 9.891 9.891 0 0 1 1.263-2.275l.234-.281h-.134q-1.687.141-3.422.375t-3.492.422l-.469-.234a1.4 1.4 0 0 1 -.211-.4.855.855 0 0 1 -.023-.445l.234-.469a38.424 38.424 0 0 1 4.383-.772q2.2-.258 4.453-.3a1.986 1.986 0 0 1 .563.188q.281.141.516.281a1.4 1.4 0 0 1 .211.4 1.019 1.019 0 0 1 .023.492l-.234.469h-.094v.094l-.328.422h-.094l-.562.891h-.094v.094a1.734 1.734 0 0 0 -.445.563 5.663 5.663 0 0 1 -.352.609q-.234.7-.492 1.406a4.463 4.463 0 0 0 -.258 1.547 4.231 4.231 0 0 0 .492 2.039 12 12 0 0 1 .82 1.9l-.234.492a1.4 1.4 0 0 1 -.4.211.855.855 0 0 1 -.448.014zm15.891.891a3.208 3.208 0 0 1 -1.219-.328 3.957 3.957 0 0 1 -1.031-.75 2.1 2.1 0 0 1 -.492-.973 5.335 5.335 0 0 1 -.117-1.113 1.939 1.939 0 0 1 .563-1.125 4.876 4.876 0 0 1 1.547-.914 5.344 5.344 0 0 1 1.828-.3v-.328l-.283-1.841-.656-.047h-1.922q-.234-.047-.492-.117a.986.986 0 0 1 -.445-.258 1.4 1.4 0 0 1 -.211-.4.855.855 0 0 1 -.023-.445l.234-.469a1.4 1.4 0 0 1 .4-.211 1.019 1.019 0 0 1 .492-.023l.234.094h1.875l.281.047v-.141l-.375-1.969h-.609l-1.125.141a2.319 2.319 0 0 1 -.352-.117 1.89 1.89 0 0 1 -.3-.164 1.4 1.4 0 0 1 -.211-.4.855.855 0 0 1 -.023-.445l.234-.469a3.271 3.271 0 0 1 1.1-.281l1.2-.094v-.4l-.094-1.078a2.319 2.319 0 0 1 .117-.352 1.89 1.89 0 0 1 .164-.3 1.4 1.4 0 0 1 .4-.211.855.855 0 0 1 .445-.023l.469.234a2.609 2.609 0 0 1 .258 1.078q.023.609.07 1.2a7.918 7.918 0 0 1 .844.141 2.529 2.529 0 0 1 .8.328 1.4 1.4 0 0 1 .211.4.855.855 0 0 1 .023.445l-.234.469a.825.825 0 0 1 -.445.234 1.561 1.561 0 0 1 -.539 0l-.469-.094v.141l.281 1.547h.422q.328-.094.7-.164a2.418 2.418 0 0 1 .75-.023l.469.234a1.4 1.4 0 0 1 .211.4.855.855 0 0 1 .023.445l-.234.469a3.631 3.631 0 0 1 -1.008.328q-.539.094-1.1.141v.375a9.154 9.154 0 0 1 .211 1.172 9.154 9.154 0 0 0 .211 1.172q.563.281 1.078.563a9.451 9.451 0 0 1 1.031.656 1.834 1.834 0 0 1 .234.422.946.946 0 0 1 .047.516l-.234.469a1.4 1.4 0 0 1 -.4.211.855.855 0 0 1 -.445.023l-1.5-.844a8.2 8.2 0 0 1 -.258 1.09 2.968 2.968 0 0 1 -.492.949l-.187.188-.281.141v.094a3.529 3.529 0 0 1 -.773.445 3.067 3.067 0 0 1 -.878.206zm.375-2.039.469-.516.234-1.125h-.234a3.75 3.75 0 0 0 -.961.211 3.239 3.239 0 0 0 -.867.492l-.047.141.188.563.469.281a.736.736 0 0 0 .516.094zm21 1.852a2.319 2.319 0 0 1 -.352-.117 1.89 1.89 0 0 1 -.3-.164 1.4 1.4 0 0 1 -.211-.4.855.855 0 0 1 -.023-.445 6.425 6.425 0 0 0 .516-1.254 9.146 9.146 0 0 0 .281-1.348h-.141l-.891.141a3.3 3.3 0 0 1 -.8-.187 2.34 2.34 0 0 1 -.7-.422l-.288-.289a2.658 2.658 0 0 1 -.516-1.078 5.611 5.611 0 0 1 -.141-1.266 3.34 3.34 0 0 1 .211-.844 2.578 2.578 0 0 1 .445-.75 4.074 4.074 0 0 1 1.2-.7 3.049 3.049 0 0 1 1.43-.141l.375.094v-1.357l-.047-.234h-.422q-1.922.141-3.8.4t-3.7.68a2.123 2.123 0 0 1 -.375-.117 1.89 1.89 0 0 1 -.3-.164 1.4 1.4 0 0 1 -.211-.4.855.855 0 0 1 -.023-.445l.234-.469a26.767 26.767 0 0 1 4.172-.891q2.133-.281 4.289-.422v-.469l-.234-1.945.234-.469a1.4 1.4 0 0 1 .4-.211.855.855 0 0 1 .445-.023l.469.234a3.24 3.24 0 0 1 .365 1.347 10.846 10.846 0 0 0 .19 1.44h1.219l.047-.047h2.227l.469.234a2.05 2.05 0 0 1 .234.4.849.849 0 0 1 .047.492l-.234.469a1.12 1.12 0 0 1 -.539.234 4.158 4.158 0 0 1 -.633.047l-1.527-.046-1.219.047v.094l.047.047v3l-.091 1.029.094.375v2.109q-.187 1.031-.422 2.027a6.152 6.152 0 0 1 -.8 1.887.7.7 0 0 1 -.328.188zm-.562-5.555a2.562 2.562 0 0 0 .352-.68 2.434 2.434 0 0 0 .117-.773.5.5 0 0 0 -.164-.234q-.117-.094-.258-.187h-.609l-.562.516-.047.516q.047.188.094.4a.7.7 0 0 0 .188.352l.094.047v.094l.656.047zm14.016 1.148-.422-.07a2.937 2.937 0 0 1 -.27-.258.511.511 0 0 1 -.105-.352q.3-2.648.574-5.3t.645-5.156a1.153 1.153 0 0 1 .34-.27.912.912 0 0 1 .434-.105l.516.07a1.066 1.066 0 0 1 .293.258.737.737 0 0 1 .129.375q-.3 2.438-.6 5.063t-.715 5.3a1.622 1.622 0 0 1 -.352.27 1.9 1.9 0 0 1 -.468.172zm-.727 4.781-.75-.516a2.05 2.05 0 0 1 -.234-.4q-.094-.211-.234-.492l.047-.281.094-.609.234-.469a2.235 2.235 0 0 1 .727-.258q.4-.07.773-.117a4.2 4.2 0 0 1 .516.117 1 1 0 0 1 .422.258 1.565 1.565 0 0 1 .281.75l.094.844-.234.469h-.094v.094q-.375.234-.75.445a1.5 1.5 0 0 1 -.893.162z" transform="matrix(.99026807 -.1391731 .1391731 .99026807 132.895 54.648)"/></g></svg>