<svg xmlns="http://www.w3.org/2000/svg" width="232.573" height="200.168" viewBox="0 0 232.573 200.168">
  <g id="img_balloon-access" transform="translate(0 0)">
    <path id="パス_54633" data-name="パス 54633" d="M134.741,151.3a4.174,4.174,0,0,1-.4-.218,53.928,53.928,0,0,1-11.543-9.149,59.7,59.7,0,0,1-7.982-10.2,58.2,58.2,0,0,1-5.789-12.409,15,15,0,0,1-5.965,7.366,20.325,20.325,0,0,1-11.143,3.266,18.9,18.9,0,0,1-6.975-1.283A15.141,15.141,0,0,1,75.722,118.5a21.331,21.331,0,0,1-.765-6.355,28.117,28.117,0,0,1-8.826,8.26,22.589,22.589,0,0,1-11.284,3.1c-6.562,0-12.564-3.03-15.663-7.909A14.268,14.268,0,0,1,37.721,103.5a27.4,27.4,0,0,1-7.521,4.942,20.742,20.742,0,0,1-8.22,1.738h0a20.54,20.54,0,0,1-13.753-5.406A18.838,18.838,0,0,1,1.868,92.755,13.387,13.387,0,0,1,5.6,82.133a19.465,19.465,0,0,1,5.829-4.106,31.58,31.58,0,0,1,6.091-2.111,31.257,31.257,0,0,1-6.9-2.672A21.93,21.93,0,0,1,4.188,68.1,17.787,17.787,0,0,1,.746,61.788a17.608,17.608,0,0,1-.666-6.775,18.836,18.836,0,0,1,1.934-6.693,19.663,19.663,0,0,1,4.3-5.7,20.2,20.2,0,0,1,6.393-3.96,22.56,22.56,0,0,1,8.183-1.481A31.523,31.523,0,0,1,33.838,40.2a25.1,25.1,0,0,1-5.2-10.675,20.016,20.016,0,0,1-.261-6.258,20.861,20.861,0,0,1,1.582-5.841C34.157,7.7,45.475.635,56.87.635A24.627,24.627,0,0,1,73.427,6.793a29.387,29.387,0,0,1,6.436,8.321,41.7,41.7,0,0,1,3.19,8.031c.611-6.5,2.981-11.995,6.961-16.073a22.963,22.963,0,0,1,8.037-5.324A25.067,25.067,0,0,1,107.329,0a24.31,24.31,0,0,1,17.508,7.169c4.312,4.478,6.487,10.53,6.3,17.522A31.962,31.962,0,0,1,141.6,14.2a23.554,23.554,0,0,1,12.136-3.374,24.741,24.741,0,0,1,14.382,4.715,21.968,21.968,0,0,1,8.41,11.635,18.164,18.164,0,0,1-1.176,12.9c-1.934,4.06-5.289,7.759-9.99,11.023a47,47,0,0,1,11.7-1.636,27.437,27.437,0,0,1,9.392,1.52,18.82,18.82,0,0,1,6.717,4.125A17.176,17.176,0,0,1,197.2,61.13a19.627,19.627,0,0,1,1.362,7.154,24.413,24.413,0,0,1-2.069,9.815,28.05,28.05,0,0,1-6.256,8.982,31.529,31.529,0,0,1-10.29,6.616,38.677,38.677,0,0,1-12.036,2.63,18.927,18.927,0,0,1,7.174,7.325,13.76,13.76,0,0,1,1.07,9.68,18.184,18.184,0,0,1-3.021,6.337,23.76,23.76,0,0,1-5.366,5.287,26.543,26.543,0,0,1-15.381,4.989h0a26.049,26.049,0,0,1-12.568-3.26,35.827,35.827,0,0,1-11.731-10.72c-.053.06-.1.11-.122.145-1.278,1.677-1.983,4.146-2.1,7.34a38.544,38.544,0,0,0,1.111,9.8c1.524,6.576,4.415,13.165,7.029,16.024a4.415,4.415,0,0,0,.939.764c.207.116.32.175.322.176ZM109.605,117.16a57.05,57.05,0,0,0,6.228,13.943,58.494,58.494,0,0,0,7.822,9.991,57.507,57.507,0,0,0,7.719,6.651,35.319,35.319,0,0,1-2.341-4.486,55.3,55.3,0,0,1-3.227-9.732,39.745,39.745,0,0,1-1.141-10.119c.124-3.447.911-6.146,2.34-8.021.31-.412,1.733-1.827,2.058-2.123l.515-.467.387.578a.876.876,0,0,1-.11,1.068,4.977,4.977,0,0,1-.5.551c-.081.08-.2.193-.281.289a34.634,34.634,0,0,0,11.319,10.349,24.865,24.865,0,0,0,11.995,3.114h0a25.333,25.333,0,0,0,14.679-4.763,22.563,22.563,0,0,0,5.1-5.019,16.992,16.992,0,0,0,2.827-5.918,13.087,13.087,0,0,0,.333-4.455,12.366,12.366,0,0,0-1.307-4.393c-1.562-3.056-4.388-5.68-8.4-7.8a6.465,6.465,0,0,1-1.846-.8l-.139-.075-.323-.134c-.515-.214-.96-.4-1.2-.507l.261-1.147a4.844,4.844,0,0,1,1.776.7c.806.336,1.425.6,1.776.768A38.291,38.291,0,0,0,179.5,92.582a30.334,30.334,0,0,0,9.9-6.363,26.856,26.856,0,0,0,5.991-8.6,23.206,23.206,0,0,0,1.97-9.327,18.434,18.434,0,0,0-1.277-6.719,15.983,15.983,0,0,0-3.742-5.6,17.629,17.629,0,0,0-6.293-3.859,26.247,26.247,0,0,0-8.981-1.448,48.294,48.294,0,0,0-13.7,2.24c-.42.128-1.733.574-2.692.9l-.9.305-.488-1.09c.259-.148.858-.41,1.551-.714.632-.277,1.417-.621,1.627-.75,5.7-3.487,9.676-7.523,11.806-12a16.98,16.98,0,0,0,1.1-12.058,20.766,20.766,0,0,0-7.959-10.988,23.533,23.533,0,0,0-13.678-4.487,22.369,22.369,0,0,0-11.525,3.206A31.2,31.2,0,0,0,131.735,26a7.158,7.158,0,0,0-1.015,2.966l-1.19-.149c.021-.2.06-.544.105-.939.11-.957.275-2.4.293-2.871.257-6.809-1.8-12.688-5.956-17a23.1,23.1,0,0,0-16.643-6.8,23.873,23.873,0,0,0-8.835,1.664,21.771,21.771,0,0,0-7.62,5.047c-4.615,4.729-6.955,11.5-6.768,19.582a6.938,6.938,0,0,1-.068,1.594c-.017.152-.033.3-.048.449a8.273,8.273,0,0,0-.021.864l-1.19.142a4.367,4.367,0,0,1,.015-1.1h0c.014-.219.031-.448.048-.669.033-.437.067-.888.066-1.154a44.031,44.031,0,0,0-4.1-11.939,28.2,28.2,0,0,0-6.171-7.984A23.444,23.444,0,0,0,56.87,1.835,29.78,29.78,0,0,0,41.381,6.382,26.2,26.2,0,0,0,31.062,17.9a18.9,18.9,0,0,0-1.246,11.389,25.42,25.42,0,0,0,6.806,12.292,17.888,17.888,0,0,1,1.726,1.424l.188.166c.7.554,1.2.961,1.4,1.152l-.719.951A12.828,12.828,0,0,1,37.765,44.1l-.067-.054c-.9-.717-1.534-1.226-1.815-1.495l-.009,0a32.027,32.027,0,0,0-14.98-4.159,21.365,21.365,0,0,0-7.749,1.4A19.006,19.006,0,0,0,7.13,43.508a18.467,18.467,0,0,0-4.042,5.349,17.641,17.641,0,0,0-1.812,6.268,16.413,16.413,0,0,0,.62,6.316,16.593,16.593,0,0,0,3.212,5.892,20.737,20.737,0,0,0,6.086,4.855,32.028,32.028,0,0,0,9.18,3.145c.052,0,.109-.006.175-.006.325,0,.81.048,1.324.1l.063.006c.692.027,1.162.048,1.372.083L23.293,76.7a1.808,1.808,0,0,1-.254.015c-.282,0-.7-.039-1.187-.086h-.036c-.706-.028-1.188-.048-1.457-.081a33.147,33.147,0,0,0-8.41,2.564,18.275,18.275,0,0,0-5.473,3.847,12.217,12.217,0,0,0-3.412,9.693,17.63,17.63,0,0,0,5.965,11.232,19.344,19.344,0,0,0,12.948,5.1h0a19.549,19.549,0,0,0,7.747-1.64,26.821,26.821,0,0,0,7.968-5.457c.272-.265.967-1.044,1.526-1.67.333-.373.621-.7.787-.874l.969.69a4.818,4.818,0,0,1-.668.824,6.5,6.5,0,0,0-.512.6,15.35,15.35,0,0,0-1.571,7.333,12.574,12.574,0,0,0,1.974,6.165c2.881,4.536,8.494,7.353,14.65,7.353a21.387,21.387,0,0,0,10.683-2.937,27.872,27.872,0,0,0,9.654-9.745l1.108.375a21.615,21.615,0,0,0,.582,8.171,13.943,13.943,0,0,0,8.507,9.39,17.709,17.709,0,0,0,6.534,1.2,19.113,19.113,0,0,0,10.48-3.066,13.578,13.578,0,0,0,5.984-8.435c-.071-.205-.192-.521-.309-.828l-.074-.194a2.519,2.519,0,0,1-.39-1.271l1.176-.091c.049.184.222.638.314.878l.041.082A3.331,3.331,0,0,1,109.605,117.16Z" transform="translate(0 54.731) rotate(-16)" fill="#222"/>
    <path id="パス_54632" data-name="パス 54632" d="M3.033,16.056a1.926,1.926,0,0,1-.292-.1,1.57,1.57,0,0,1-.253-.136,5.113,5.113,0,0,1-.565-2.463,15.9,15.9,0,0,0-.175-2.618,1.926,1.926,0,0,1,.1-.292,1.569,1.569,0,0,1,.136-.253A9.512,9.512,0,0,1,4.22,9.749q1.187-.1,2.394-.1.818.039,1.635.136a4.577,4.577,0,0,1,1.518.448v.078h.078a2.823,2.823,0,0,1,.331,1.265q.019.681.019,1.382-.039.72-.078,1.421a3.8,3.8,0,0,1-.311,1.324A5.724,5.724,0,0,1,8.756,16a4.9,4.9,0,0,1-1.168.058l-.039-.039H3.5Zm5.529-1.518v-.117a11.917,11.917,0,0,0,.1-1.2q.019-.613.019-1.236L8.639,11.4a10.731,10.731,0,0,0-1.6-.195q-.818-.039-1.674-.039L3.344,11.4v.273a8,8,0,0,1,.117,1.392A12.949,12.949,0,0,0,3.539,14.5H7.666ZM2.215,9.029l-.428-.195a1.117,1.117,0,0,1-.2-.331.649.649,0,0,1-.029-.37l.234-.389A3.6,3.6,0,0,1,3.305,7.51a10.752,10.752,0,0,0,1.6-.039L5,6.615V5.057H4.9L3.87,5.135H1.748l-1.09.039L.21,4.98a1.162,1.162,0,0,1-.175-.331.71.71,0,0,1-.019-.37L.21,3.889a1.013,1.013,0,0,1,.74-.273,5.421,5.421,0,0,0,.8-.019H3.831L4.96,3.52V1.962L4.9,1.145,5.019.755A1.11,1.11,0,0,1,5.194.4,1.717,1.717,0,0,1,5.583.23.794.794,0,0,1,5.972.21L6.4.4A1.7,1.7,0,0,1,6.6.736a.6.6,0,0,1,.039.37l-.058.74.058.039v1.6H9.009q.779.039,1.577.019a4.369,4.369,0,0,1,1.5.214,2.363,2.363,0,0,1,.195.35.458.458,0,0,1,0,.37l-.195.389A1.564,1.564,0,0,1,11.657,5a2,2,0,0,1-.487.058,13.751,13.751,0,0,1-1.635-.019q-.818-.058-1.674-.1l-1.187.078V6.771l-.039.584,2.044.078a5.1,5.1,0,0,0,.769.019.961.961,0,0,1,.672.214,1.117,1.117,0,0,1,.2.331.768.768,0,0,1,.029.409l-.234.389a1.037,1.037,0,0,1-.72.214Q8.97,8.99,8.542,8.99L8.5,8.951,6.362,8.873q-.973.117-2.005.156T2.215,9.029Zm26.9,7.183-.389-.195a1.569,1.569,0,0,1-.136-.253,1.926,1.926,0,0,1-.1-.292V13.564l-.039-.72-.039-.467.039-1.051h-.467a11.51,11.51,0,0,0-1.363.156,8.061,8.061,0,0,1-1.4.117l-.389-.195a1.162,1.162,0,0,1-.175-.331.71.71,0,0,1-.019-.37l.195-.389a7.46,7.46,0,0,1,1.733-.35l1.81-.156V9.5l-.039-.623.039-.195h-.273l-.623.039a1.926,1.926,0,0,1-.292-.1,1.57,1.57,0,0,1-.253-.136,1.162,1.162,0,0,1-.175-.331.71.71,0,0,1-.019-.37l.195-.389a1.078,1.078,0,0,1,.72-.214,3.263,3.263,0,0,0,.8-.058L28.5,5.875h-.389l-1.791.117L25.926,5.8a1.162,1.162,0,0,1-.175-.331.71.71,0,0,1-.019-.37l.195-.389a1.3,1.3,0,0,1,.623-.234,6.7,6.7,0,0,1,.74-.039V4.318a11.273,11.273,0,0,1-.545-1.178,5.014,5.014,0,0,1-.311-1.256l.195-.389a1.162,1.162,0,0,1,.331-.175.71.71,0,0,1,.37-.019l.389.195q.273.623.565,1.275a5.517,5.517,0,0,1,.409,1.353l-.039.234H29.7V4.279l-.039-.389q.35-.681.642-1.363a9.569,9.569,0,0,1,.681-1.3,1.474,1.474,0,0,1,.35-.175.71.71,0,0,1,.37-.019l.389.195a1.162,1.162,0,0,1,.175.331.846.846,0,0,1,.019.409L31.2,4.357a3.85,3.85,0,0,1,.545.039,1.211,1.211,0,0,1,.506.195,1.162,1.162,0,0,1,.175.331.71.71,0,0,1,.019.37l-.195.389a1.085,1.085,0,0,1-.37.175,1.694,1.694,0,0,1-.448.058l-1.421-.039V7.121h.623a.9.9,0,0,1,.565.195,1.162,1.162,0,0,1,.175.331.71.71,0,0,1,.019.37l-.195.389a1.215,1.215,0,0,1-.6.214q-.311.019-.662.019l-.078.818.039.35h2.511a5.018,5.018,0,0,0,.623.039.826.826,0,0,1,.545.195,1.162,1.162,0,0,1,.175.331.846.846,0,0,1,.019.409l-.195.389a.881.881,0,0,1-.584.195H32.33l-.039-.039H29.975l-.039,1.324.039.039.078.993-.039.039v1.908l-.195.389a1.162,1.162,0,0,1-.331.175A.71.71,0,0,1,29.118,16.212Zm-6.736-.078-.389-.195a3.49,3.49,0,0,1-.234-1.46,10.492,10.492,0,0,0-.039-1.557V10.586L21.682,10l.039-.506h-.078l-.545.545-.253.234-.234.117v.078l-.467.311a.777.777,0,0,1-.545.117L19.21,10.7a1.162,1.162,0,0,1-.175-.331.846.846,0,0,1-.019-.409l.195-.389a11.7,11.7,0,0,0,1.664-1.5,16.437,16.437,0,0,0,1.392-1.733h-.195a7.811,7.811,0,0,0-1.353.35,4.776,4.776,0,0,1-1.353.273l-.389-.195A1.162,1.162,0,0,1,18.8,6.44a.71.71,0,0,1-.019-.37l.195-.389a16.3,16.3,0,0,1,2.482-.74A17.334,17.334,0,0,1,24.1,4.59l.389.195a1.162,1.162,0,0,1,.175.331.846.846,0,0,1,.019.409l-.973,1.6h-.078l-.117.234-.156.195.934.311a2.757,2.757,0,0,1,.857.467,1.162,1.162,0,0,1,.175.331.71.71,0,0,1,.019.37l-.195.389a1.162,1.162,0,0,1-.331.175.846.846,0,0,1-.409.019l-1.168-.467L23.2,10.43l.039.039v2.375l.039,2.706-.195.389a1.162,1.162,0,0,1-.331.175A.71.71,0,0,1,22.383,16.134Zm.078-11.855-.389-.195-.779-.954-.6-.7-.039-.467.195-.389a1.132,1.132,0,0,1,.341-.175.752.752,0,0,1,.38-.019l.389.195.117.234.234.117.35.311.234.389.078.039q.156.234.292.477a.883.883,0,0,1,.1.555l-.195.389a1.162,1.162,0,0,1-.331.175A.71.71,0,0,1,22.461,4.279ZM47.378,17.185l-.389-.195a.828.828,0,0,1-.214-.35.939.939,0,0,1-.019-.428,14.39,14.39,0,0,0,1.051-3.066,13.6,13.6,0,0,0,.311-3.261H46.4q-1.713.078-3.407.175a33.352,33.352,0,0,0-3.387.37l-.389-.195a1.162,1.162,0,0,1-.175-.331.71.71,0,0,1-.019-.37l.195-.389a15.574,15.574,0,0,1,3.543-.6q1.81-.1,3.64-.175h1.674V8.172L47.923,7.16l.195-.389a1.162,1.162,0,0,1,.331-.175.71.71,0,0,1,.37-.019l.389.195a2.046,2.046,0,0,1,.311.759,4.464,4.464,0,0,1,.078.837,12.1,12.1,0,0,0,1.538.058,2.923,2.923,0,0,1,1.4.292,1.162,1.162,0,0,1,.175.331.71.71,0,0,1,.019.37l-.195.389a1.11,1.11,0,0,1-.35.175.939.939,0,0,1-.428.019A6.974,6.974,0,0,0,50.7,9.924q-.555,0-1.061-.039a15.751,15.751,0,0,1-.35,3.669,14.507,14.507,0,0,1-1.207,3.436,1.162,1.162,0,0,1-.331.175A.71.71,0,0,1,47.378,17.185Zm-3.154-2.842L43.8,14.11a6.288,6.288,0,0,0-.915-.857q-.487-.37-.954-.8a.518.518,0,0,1-.234-.058,2.176,2.176,0,0,1-.234-.136,1.162,1.162,0,0,1-.175-.331.71.71,0,0,1-.019-.37l.195-.389a.777.777,0,0,1,.428-.175q.234-.019.467-.019l.818.506a2.81,2.81,0,0,0,.448.428q.253.195.487.35l.311.273.311.273v.078h.078l.117.117a1.162,1.162,0,0,1,.175.331.846.846,0,0,1,.019.409l-.195.409a1.162,1.162,0,0,1-.331.175A.71.71,0,0,1,44.225,14.343ZM42.589,6.654a1.926,1.926,0,0,1-.292-.1,1.57,1.57,0,0,1-.253-.136,1.162,1.162,0,0,1-.175-.331.71.71,0,0,1-.019-.37l.195-.389a4.409,4.409,0,0,1,1.3-.273l1.343-.078V3.442h-.234q-.662.039-1.285.136t-1.285.136L41.5,3.52a1.162,1.162,0,0,1-.175-.331.71.71,0,0,1-.019-.37l.195-.389a4.916,4.916,0,0,1,1.577-.37q.837-.058,1.655-.136V1.845a4.511,4.511,0,0,0-.117-.6A1.736,1.736,0,0,1,44.575.6L44.77.21A1.162,1.162,0,0,1,45.1.035a.71.71,0,0,1,.37-.019L45.86.21a2.2,2.2,0,0,1,.253.779q.058.428.136.857l.506.039h1.908l.545.078a.946.946,0,0,1,.467.195,1.162,1.162,0,0,1,.175.331.71.71,0,0,1,.019.37l-.195.389a1.11,1.11,0,0,1-.35.175,1.486,1.486,0,0,1-.428.058l-.35-.078H46.677l-.467-.039v1.5L47.3,4.9l.857-.039.389.195a1.162,1.162,0,0,1,.175.331.71.71,0,0,1,.019.37l-.195.389a1.139,1.139,0,0,1-.7.234q-.389,0-.779.039l-1.09-.039Zm20.927,9.227-.35-.195a.942.942,0,0,1-.175-.3.8.8,0,0,1-.019-.4,7.669,7.669,0,0,0,1.149-2.278,9.577,9.577,0,0,0,.311-2.609l-.019-.506h-.078a11.538,11.538,0,0,0-1.986.243q-.954.2-1.947.321l-.662-.37a.916.916,0,0,1-.224-.642,5.263,5.263,0,0,0-.029-.72l.039-1.733-.039-.039.039-1.46-.039-.039L59.525,3.6l-.058-1.966.389-.6a1.627,1.627,0,0,1,.321-.156.569.569,0,0,1,.36,0l.253.039q.9-.136,1.791-.234A14.389,14.389,0,0,1,64.431.6l.35.214a.942.942,0,0,1,.175.3.67.67,0,0,1,.019.36l-.214.37a1.141,1.141,0,0,1-.574.165q-.321.01-.672.01v.37l.1.779q.331.019.652.019a.917.917,0,0,1,.574.195,1.548,1.548,0,0,1,.175.341.608.608,0,0,1,.019.341l-.214.37a.92.92,0,0,1-.535.185q-.3.01-.594-.01l-.019.6.039.389.253.019.837-.039.37.175a1.626,1.626,0,0,1,.156.321.608.608,0,0,1,.019.341l-.195.37a1.68,1.68,0,0,1-.711.2q-.4.029-.769.049l-.058,1.149h.117l1.09-.039.37.146a1.389,1.389,0,0,1,.331.185,2.028,2.028,0,0,1,.341,1.041q.029.574.029,1.158a8.9,8.9,0,0,1-.409,2.638,10.126,10.126,0,0,1-1.226,2.346,1.7,1.7,0,0,1-.331.195A.618.618,0,0,1,63.516,15.881Zm2.667-.311-.389-.195a.921.921,0,0,1-.175-.311.662.662,0,0,1,0-.389A12.741,12.741,0,0,0,66.9,10.859a31.8,31.8,0,0,0,.409-4.01,2.156,2.156,0,0,0-.078-.711,3.188,3.188,0,0,1-.117-.711l.117-.37q-.019-.837-.058-1.674a10.784,10.784,0,0,0-.195-1.616l.195-.37q1.187-.214,2.414-.35T72.12.892a2.286,2.286,0,0,1,.273.1,1.569,1.569,0,0,1,.253.136.617.617,0,0,1,.2.457q.01.282.01.574a11.966,11.966,0,0,0-.2,1.236,11.968,11.968,0,0,1-.2,1.236l.156.117a1.011,1.011,0,0,1,.165.321.672.672,0,0,1,.01.341l-.195.37a5.506,5.506,0,0,1-1.47.273q-.769.039-1.509.136v.078a44.077,44.077,0,0,0,1.762,4.244,19.77,19.77,0,0,0,2.482,3.932l.273.311.019.409-.195.35a1.011,1.011,0,0,1-.321.165.9.9,0,0,1-.4.01l-.37-.195A27.652,27.652,0,0,1,70.5,12.056a18.437,18.437,0,0,1-1.694-3.864h-.078A26.589,26.589,0,0,1,68.2,11.92a12.159,12.159,0,0,1-1.333,3.475,1.2,1.2,0,0,1-.321.175A.569.569,0,0,1,66.183,15.57ZM58.844,15a1.58,1.58,0,0,1-.273-.107,2.352,2.352,0,0,1-.253-.146,4.731,4.731,0,0,1-.5-1.119,7.441,7.441,0,0,1-.263-1.256.8.8,0,0,1,.088-.282q.068-.127.146-.243a1.293,1.293,0,0,1,.321-.146.745.745,0,0,1,.36-.01l.37.195q.214.623.409,1.275t.37,1.295l-.195.311a.578.578,0,0,1-.273.156Zm1.382-1.051-.37-.195a6.1,6.1,0,0,1-.37-.866,3.28,3.28,0,0,1-.175-.925l.175-.37a1.542,1.542,0,0,1,.331-.156.646.646,0,0,1,.35-.019l.389.214a5.292,5.292,0,0,1,.37.847,3.853,3.853,0,0,1,.195.925l-.214.37a1.011,1.011,0,0,1-.321.165A.745.745,0,0,1,60.226,13.954Zm1.713-.7-.389-.195q-.136-.409-.282-.808a3.281,3.281,0,0,1-.185-.847l.234-.35a1.167,1.167,0,0,1,.311-.156.71.71,0,0,1,.37-.019l.37.195.117.117v-.117l-.078-.467.214-.37a.8.8,0,0,1,.311-.165.713.713,0,0,1,.35-.01l.389.195a3.066,3.066,0,0,1,.341.642,1.692,1.692,0,0,1,.107.7l-.195.37a1.648,1.648,0,0,1-.321.136.685.685,0,0,1-.36.019l-.37-.195-.156-.117v.078l.1.818-.195.37a1.162,1.162,0,0,1-.331.175A.54.54,0,0,1,61.939,13.253Zm.136-4.847.019-.37.1-.779-.156-.019L61,7.277l-.039,1.11L61,8.581h.234Zm.136-2.628.019-.487-.019-.545-.292-.019-.934.136-.019.331.019.662.779.019Zm8.741-1.149V4.454l.389-2.122h-.506l-2.258.253v.1a4.172,4.172,0,0,1,.1,1.061,10.46,10.46,0,0,0,.019,1.1l.331.019a5.211,5.211,0,0,1,.954-.146Q70.466,4.688,70.952,4.629ZM62.115,3.267l.019-.331-.1-.759h-.253L61,2.293l-.058.779.019.35h.117ZM81.367,14.616l-.389-.195a1.162,1.162,0,0,1-.175-.331.777.777,0,0,1-.019-.389,9.253,9.253,0,0,0,1.324-2.394,6.385,6.385,0,0,0,.35-2.745,3.075,3.075,0,0,0-.117-.467.75.75,0,0,0-.311-.389.73.73,0,0,0-.331-.078h-.37l-.857.078q-.234.973-.409,1.966a9.879,9.879,0,0,1-.526,1.888,1.162,1.162,0,0,1-.331.175.846.846,0,0,1-.409.019l-.389-.195a1.389,1.389,0,0,1-.185-.331.555.555,0,0,1-.01-.37,8.185,8.185,0,0,0,.35-1.343q.117-.681.273-1.382H78.72q-.273.117-.574.214a1.547,1.547,0,0,1-.652.058L77.1,8.211a1.162,1.162,0,0,1-.175-.331.71.71,0,0,1-.019-.37l.195-.389a7.443,7.443,0,0,1,1.041-.389q.535-.156,1.08-.273a4.741,4.741,0,0,0,.156-1.226,2.384,2.384,0,0,1,.273-1.149,1.389,1.389,0,0,1,.331-.185.649.649,0,0,1,.37-.029l.389.214a1.11,1.11,0,0,1,.175.35.939.939,0,0,1,.019.428q-.039.35-.058.681a3.487,3.487,0,0,1-.1.642H80.9l1.012-.078a3.57,3.57,0,0,1,.623.136,1.315,1.315,0,0,1,.545.331l.311.311a2.824,2.824,0,0,1,.526,1.324,8.4,8.4,0,0,1,.058,1.518,7.718,7.718,0,0,1-.545,2.472,8.314,8.314,0,0,1-1.324,2.18,1.7,1.7,0,0,1-.331.195A.705.705,0,0,1,81.367,14.616Zm8.9-4.575a1.927,1.927,0,0,1-.292-.1,1.57,1.57,0,0,1-.253-.136,14.226,14.226,0,0,0-.857-1.421,12.438,12.438,0,0,0-1.071-1.343L86.429,5.875a1.162,1.162,0,0,1-.175-.331.71.71,0,0,1-.019-.37l.195-.389a1.162,1.162,0,0,1,.331-.175.71.71,0,0,1,.37-.019,4.609,4.609,0,0,1,.964.7q.457.428.925.818l.545.623.117.234h.078l.779,1.168a3.254,3.254,0,0,1,.506,1.285l-.195.389a.578.578,0,0,1-.273.156Zm11.446,5.353a1.926,1.926,0,0,1-.292-.1,1.57,1.57,0,0,1-.253-.136,1.162,1.162,0,0,1-.175-.331.71.71,0,0,1-.019-.37l.234-.467.234-.253a5.4,5.4,0,0,0,.642-.779q.292-.428.526-.857l.039-.74a2.037,2.037,0,0,0-.117-.331.957.957,0,0,0-.195-.292.849.849,0,0,0-.487-.175q-.292-.019-.565-.019a5.734,5.734,0,0,0-1.265.545,3.338,3.338,0,0,1-1.343.428,1.671,1.671,0,0,1-.9-.467,1.913,1.913,0,0,1-.428-.8q-.117-.448-.195-.915V7.316q.078-.428.136-.857a1.263,1.263,0,0,1,.37-.74,1.162,1.162,0,0,1,.331-.175.71.71,0,0,1,.37-.019l.389.195a1.162,1.162,0,0,1,.175.331.71.71,0,0,1,.019.37,1.643,1.643,0,0,0-.156.506,2.893,2.893,0,0,1-.117.506v1.83l.195.623h.195a6.232,6.232,0,0,1,1.421-.681,4.07,4.07,0,0,1,1.655-.175,3.253,3.253,0,0,1,.681.234,2.668,2.668,0,0,1,.6.389l.234.273a2.362,2.362,0,0,1,.448,1.012,4.9,4.9,0,0,1,.058,1.168,2.769,2.769,0,0,1-.37,1.071q-.292.487-.642.973l-.234.273h-.078l-.234.389-.234.273h-.078v.078a.578.578,0,0,1-.273.156ZM99.919,4.941a10.653,10.653,0,0,0-1.032-.487,10.652,10.652,0,0,1-1.032-.487,1.474,1.474,0,0,1-.175-.35.71.71,0,0,1-.019-.37l.195-.389a1.162,1.162,0,0,1,.331-.175.846.846,0,0,1,.409-.019q.467.195.954.37a3.1,3.1,0,0,1,.915.526,1.6,1.6,0,0,1,.195.341.745.745,0,0,1,.039.419l-.195.389a.578.578,0,0,1-.273.156ZM14.771,40.124l-.428-.214a.965.965,0,0,1-.146-.341,1.72,1.72,0,0,1-.049-.4l.078-.954q.019-1.012.01-2.025t-.029-2.005l.058-.7-.1-.039-.915.9h-.078l-.078.195a1.225,1.225,0,0,1-.35.165.788.788,0,0,1-.37.01l-.37-.214a1.515,1.515,0,0,1-.165-.37.8.8,0,0,1,.01-.409,3.849,3.849,0,0,1,.886-1.022,6.252,6.252,0,0,0,.964-.983q.662-.6,1.256-1.236T16.1,29.183a1.829,1.829,0,0,1,.389-.243.743.743,0,0,1,.467-.029l.389.214a1.255,1.255,0,0,1,.146.331.788.788,0,0,1,.01.37l-.214.389a6.129,6.129,0,0,0-.74.8,6.128,6.128,0,0,1-.74.8v.117a.374.374,0,0,1,.088.273q-.01.156-.01.311l-.078.934-.019.857-.039.175q.058,1.207.058,2.443t-.058,2.443q-.058.156-.107.331a.526.526,0,0,1-.165.273,1.228,1.228,0,0,1-.341.146A.754.754,0,0,1,14.771,40.124Zm9.85.117a12.8,12.8,0,0,1-3.008-1q-1.45-.691-2.91-1.314a3.41,3.41,0,0,1-.4.779q-.263.389-.5.74a1.389,1.389,0,0,1-.331.185.768.768,0,0,1-.409.029l-.389-.195a1.162,1.162,0,0,1-.175-.331.88.88,0,0,1-.039-.37,15.357,15.357,0,0,0,1.246-2.229q.526-1.158.934-2.346a1.2,1.2,0,0,1,.321-.175.824.824,0,0,1,.36-.039l.409.195a1.162,1.162,0,0,1,.175.331.847.847,0,0,1,.019.409,7.289,7.289,0,0,1-.243.837q-.146.409-.3.837a2.6,2.6,0,0,1,.886.321,3.534,3.534,0,0,0,.847.36q-.019-1.051.039-2.093t.078-2.093l-.058-.584H20.9l-.039.039L19,32.59a1.8,1.8,0,0,1-.506.088q-.273.01-.545.01a1.422,1.422,0,0,1-.292-.107,2.352,2.352,0,0,1-.253-.146,1.07,1.07,0,0,1-.185-.311.649.649,0,0,1-.029-.37l.195-.409a.986.986,0,0,1,.711-.2,1.85,1.85,0,0,0,.749-.088l1.947-.039.35-.039.039-2.044-.545.019-.818.1a2.321,2.321,0,0,1-.74-.292,1.332,1.332,0,0,1-.185-.341.688.688,0,0,1-.029-.38l.195-.389a.966.966,0,0,1,.331-.195.846.846,0,0,1,.409-.019l.545.058.779-.078q.019-.6-.01-1.207a2.2,2.2,0,0,1,.224-1.11,1.162,1.162,0,0,1,.331-.175.88.88,0,0,1,.37-.039l.389.195a1.7,1.7,0,0,1,.195.331.6.6,0,0,1,.039.37l.039,1.557.623-.019L25.05,27.2l.389.195a1.162,1.162,0,0,1,.175.331.71.71,0,0,1,.019.37l-.175.409a3.209,3.209,0,0,1-1.333.3q-.711.01-1.411.068V30.9H24.5l.8-.058a3.278,3.278,0,0,0,.915.029,1.313,1.313,0,0,1,.837.165.966.966,0,0,1,.195.331.846.846,0,0,1,.019.409l-.175.389a1.411,1.411,0,0,1-.876.224,6.667,6.667,0,0,0-.954.01l-.6-.019-.545.039h-1.4v.6l.058.584-.019.545q.9.019,1.84-.019a3.937,3.937,0,0,1,1.723.292,1.162,1.162,0,0,1,.175.331.88.88,0,0,1,.039.37l-.195.389a1.389,1.389,0,0,1-.331.185.768.768,0,0,1-.409.029q-.7-.058-1.45-.068t-1.489.01l-.039.506.058,1.791a12.551,12.551,0,0,0,1.207.526,3.519,3.519,0,0,0,1.343.214q.584-.117,1.129-.263a3.378,3.378,0,0,0,1.051-.5l.039-.078.1-.117a1.85,1.85,0,0,1,.428-.321.8.8,0,0,1,.506-.088l.389.195a1.466,1.466,0,0,1,.185.321.668.668,0,0,1,.029.38.791.791,0,0,1-.156.3q-.117.146-.195.263l-.1.117-.156.156a5.179,5.179,0,0,1-1.8.857A10.517,10.517,0,0,1,24.622,40.24ZM13.234,30.351a1.926,1.926,0,0,1-.292-.1,1.57,1.57,0,0,1-.253-.136,1.162,1.162,0,0,1-.175-.331.71.71,0,0,1-.019-.37l.195-.389q.7-.584,1.324-1.217t1.3-1.256l.467-.039.389.195a1.162,1.162,0,0,1,.175.331.71.71,0,0,1,.019.37l-.195.389-1.207,1.3a2.429,2.429,0,0,0-.623.428,4.453,4.453,0,0,0-.526.584.578.578,0,0,1-.273.156Zm22.893,9.986a1.926,1.926,0,0,1-.292-.1,1.57,1.57,0,0,1-.253-.136,1.261,1.261,0,0,1-.165-.341.745.745,0,0,1-.01-.36l.195-.37a14.507,14.507,0,0,0,4.1-1.509,17.115,17.115,0,0,0,3.494-2.638l.039-.078.448-.37.117-.156-.565-.6-.565-.526a1.162,1.162,0,0,1-.175-.331.6.6,0,0,1,0-.37l.195-.389a.978.978,0,0,1,.341-.165.832.832,0,0,1,.38-.01,1.966,1.966,0,0,1,.428.273q.214.175.448.35l.175.195.156.156.311.35a.5.5,0,0,0,.234.292,2.046,2.046,0,0,1,.311.195l.409.409.506.409V34.6l.448.273v.078h.078a1.225,1.225,0,0,1,.165.35.947.947,0,0,1,.01.409l-.195.37a1.474,1.474,0,0,1-.35.175.6.6,0,0,1-.37,0,2.091,2.091,0,0,1-.633-.438,1.608,1.608,0,0,0-.633-.4l-.1.1-.117.117h-.078V35.7l-.389.35-.565.506-.234.1-.019.078-.623.526-.409.311a2.406,2.406,0,0,0-.448.292,2.336,2.336,0,0,0-.389.409,11.838,11.838,0,0,1-2.589,1.353A15.728,15.728,0,0,1,36.126,40.338Zm3.679-4.03-.389-.195a2.618,2.618,0,0,1-.214-1.46,9.207,9.207,0,0,0,.058-1.577l.039-.428-.039-1.713H37.392l-3.134.234a1.926,1.926,0,0,1-.292-.1,1.57,1.57,0,0,1-.253-.136,1.162,1.162,0,0,1-.175-.331.71.71,0,0,1-.019-.37l.195-.389a3.59,3.59,0,0,1,1.236-.253q.652-.019,1.275-.1v-.623q-.078-.428-.136-.866a6.845,6.845,0,0,1-.058-.905,1.926,1.926,0,0,1,.1-.292,1.569,1.569,0,0,1,.136-.253,1.162,1.162,0,0,1,.331-.175.71.71,0,0,1,.37-.019l.389.195a5.476,5.476,0,0,1,.292,1.392q.058.73.1,1.47h1.6V26.75l.039-.234-.039-1.246a1.926,1.926,0,0,1,.1-.292,1.57,1.57,0,0,1,.136-.253,1.162,1.162,0,0,1,.331-.175.71.71,0,0,1,.37-.019l.389.195a1.689,1.689,0,0,1,.195.954,4.16,4.16,0,0,0,.039.993h2.647l.389.195a1.162,1.162,0,0,1,.175.331.71.71,0,0,1,.019.37l-.195.409a1.111,1.111,0,0,1-.681.234q-.37,0-.759.039l-.039-.039h-1.6v1.207l.973.039H44.4q.584.039,1.217.078a3.158,3.158,0,0,1,1.139.273,1.162,1.162,0,0,1,.175.331.71.71,0,0,1,.019.37l-.195.389a1.11,1.11,0,0,1-.35.175,1.486,1.486,0,0,1-.428.058l-1.733-.156h-2.57l-.857-.039v2.258l-.039.973L40.7,35.724l-.195.389a1.162,1.162,0,0,1-.331.175A.71.71,0,0,1,39.806,36.308Zm-4.4-.7a2.339,2.339,0,0,1-.3-.1,1.429,1.429,0,0,1-.263-.136,1.162,1.162,0,0,1-.175-.331.71.71,0,0,1-.019-.37l.195-.389.311-.311.681-.584a5.444,5.444,0,0,1,.506-.584,2.794,2.794,0,0,0,.467-.623,1.162,1.162,0,0,1,.331-.175.71.71,0,0,1,.37-.019l.389.195a1.162,1.162,0,0,1,.175.331.846.846,0,0,1,.019.409,2.152,2.152,0,0,1-.195.428,3.543,3.543,0,0,1-.273.389h-.078v.078l-.623.74-.35.273-.234.117v.078l-.117.117-.467.389ZM54.25,40.766a1.926,1.926,0,0,1-.292-.1,1.569,1.569,0,0,1-.253-.136,1.162,1.162,0,0,1-.175-.331.71.71,0,0,1-.019-.37l.195-.389q.74-.35,1.5-.623a3.626,3.626,0,0,0,1.382-.915,5.611,5.611,0,0,0,.818-1.226,3.639,3.639,0,0,0,.35-1.421,2.181,2.181,0,0,0-.156-.818,2.074,2.074,0,0,0-.467-.7,2.884,2.884,0,0,0-1.694-.565,2.884,2.884,0,0,1-1.694-.565,2.235,2.235,0,0,1-.428-.837,3.059,3.059,0,0,1-.078-.993q.311-1.207.642-2.385a16.631,16.631,0,0,1,.837-2.307,1.162,1.162,0,0,1,.331-.175.71.71,0,0,1,.37-.019l.389.195a1.335,1.335,0,0,1,.136.273.882.882,0,0,1,.058.311,25.838,25.838,0,0,1,2.647.136,12.334,12.334,0,0,1,2.531.526,1.7,1.7,0,0,1,.195.331.761.761,0,0,1,.039.428l-.195.389a1.162,1.162,0,0,1-.331.175.71.71,0,0,1-.37.019q-1.09-.195-2.18-.331a18.2,18.2,0,0,0-2.258-.136l-.584.039a10.836,10.836,0,0,1-.428,1.538,5.4,5.4,0,0,0-.311,1.577l.273.234a8.454,8.454,0,0,1,1.733.253,3.386,3.386,0,0,1,1.5.837v.078h.078a3.239,3.239,0,0,1,.759,1.324,4.751,4.751,0,0,1,.175,1.557,5.221,5.221,0,0,1-.331,1.343,7.086,7.086,0,0,1-.642,1.246l-.273.311h-.078a1.093,1.093,0,0,1-.273.428,4.742,4.742,0,0,0-.35.389,6.628,6.628,0,0,1-1.479.876A9.991,9.991,0,0,1,54.25,40.766Zm19.856-.545-.389-.195a1.162,1.162,0,0,1-.175-.331.846.846,0,0,1-.019-.409l.195-.389.273-.273.506-.506h.078a13.5,13.5,0,0,0,.993-2.3,8.021,8.021,0,0,0,.37-2.472l-.195-.506a1.976,1.976,0,0,0-.8-.234q-.448-.039-.876-.039l-.389.039a10.383,10.383,0,0,1-.759,2.219,14.928,14.928,0,0,1-1.187,2.025h-.078l-.234.389h-.078v.078l-.545.72-.662.584-.506.039-.389-.195a1.162,1.162,0,0,1-.175-.331.71.71,0,0,1-.019-.37l.195-.409h.078v-.078a2,2,0,0,0,.467-.467l.389-.545a3.988,3.988,0,0,0,.662-.876q.273-.487.584-.954l.662-1.791H72q-.545.117-1.129.214a7.093,7.093,0,0,1-1.168.1l-.389-.195a1.162,1.162,0,0,1-.175-.331.71.71,0,0,1-.019-.37l.195-.389a14.018,14.018,0,0,1,1.869-.428,12.549,12.549,0,0,1,1.986-.156l.234.039,1.207-.078a7.887,7.887,0,0,1,1.129.156,2.264,2.264,0,0,1,.973.467,2.1,2.1,0,0,1,.331.428q.136.234.253.467.078.273.136.584a2.238,2.238,0,0,1,.019.662,10.3,10.3,0,0,1-.526,2.793,11.312,11.312,0,0,1-1.265,2.56l-.117.117-.389.389-.117.117-.156.156h-.078v.078a1.162,1.162,0,0,1-.331.175A.71.71,0,0,1,74.106,40.221Zm5.782-7.573a3.159,3.159,0,0,1-.905-.487q-.438-.331-.866-.642a10.865,10.865,0,0,1-1.986-2.151q-.818-1.178-1.6-2.424l-.039-.467.195-.389a1.162,1.162,0,0,1,.331-.175.71.71,0,0,1,.37-.019l.389.195.506.857h.078L77.415,28.5a6.784,6.784,0,0,0,.526.72,3.012,3.012,0,0,0,.642.584l.448.389v.078h.078l.506.428.74.506.117.117a1.162,1.162,0,0,1,.175.331.71.71,0,0,1,.019.37l-.195.389a.578.578,0,0,1-.273.156ZM67.39,32.1,67,31.909a1.162,1.162,0,0,1-.175-.331.71.71,0,0,1-.019-.37l.234-.428.156-.156,1.012-1.012q.74-.779,1.47-1.625a13.114,13.114,0,0,0,1.275-1.742,1.162,1.162,0,0,1,.331-.175.71.71,0,0,1,.37-.019l.389.195a1.162,1.162,0,0,1,.175.331.846.846,0,0,1,.019.409,3.942,3.942,0,0,1-.506.876q-.311.409-.623.857H71.03l-.195.35-.506.545h-.078l-.195.35h-.078l-.117.234h-.078l-.117.234-.234.117v.078l-.195.195-.331.35h-.078v.078l-.467.428-.117.117a2.205,2.205,0,0,1-.389.253A.78.78,0,0,1,67.39,32.1Zm20.557,3.368-.35-.058a2.439,2.439,0,0,1-.224-.214.425.425,0,0,1-.088-.292q.253-2.2.477-4.4t.535-4.283A.958.958,0,0,1,88.58,26a.758.758,0,0,1,.36-.088l.428.058a.886.886,0,0,1,.243.214.612.612,0,0,1,.107.311q-.253,2.025-.5,4.2t-.594,4.4a1.347,1.347,0,0,1-.292.224A1.579,1.579,0,0,1,87.947,35.471Zm-.6,3.971-.623-.428a1.7,1.7,0,0,1-.195-.331q-.078-.175-.195-.409l.039-.234.078-.506.195-.389a1.856,1.856,0,0,1,.6-.214q.331-.058.642-.1a3.49,3.49,0,0,1,.428.1.828.828,0,0,1,.35.214,1.3,1.3,0,0,1,.234.623l.078.7-.195.389h-.078v.078q-.311.195-.623.37A1.247,1.247,0,0,1,87.343,39.442Z" transform="translate(61.373 84.179) rotate(-8)" fill="#222"/>
  </g>
</svg>
