<svg xmlns="http://www.w3.org/2000/svg" width="307.962" height="160.398" viewBox="0 0 307.962 160.398">
  <g id="img_balloon-special-lunch-set" transform="matrix(0.998, 0.07, -0.07, 0.998, -308.302, -1824.513)">
    <path id="パス_42353" data-name="パス 42353" d="M582.852,642.557a394.747,394.747,0,0,1,43.214,2.184c.717.09,1.674.2,2.782.333a409.386,409.386,0,0,1,47.359,8.005c24.809,5.96,42.4,13.8,52.281,23.31a42.432,42.432,0,0,1,10.161,15.152,43.39,43.39,0,0,1,2.354,8.41,44.479,44.479,0,0,1-2.988,25.242,40.432,40.432,0,0,1-4.141,7.316,37.044,37.044,0,0,1-5.58,6.206,104.253,104.253,0,0,1-12.172,9.68,70.891,70.891,0,0,1-17.8,8.274,152.248,152.248,0,0,1-29.2,5.73,424.012,424.012,0,0,1-46.466,2.143c-6.119,0-12.662-.082-19.447-.242h-.016c-.405-.02-40.773-1.99-73.8-4.209-3.539,5.548-9.349,10.664-17.276,15.212a93.681,93.681,0,0,1-15.727,7.106.65.65,0,0,1-.447-1.221c3.995-1.556,7.063-4.828,9.122-9.726a41.7,41.7,0,0,0,2.824-12.955c-8.915-.74-14.993-1.379-18.568-1.952-12.6-2.018-23.67-7.448-32.007-15.7a50.206,50.206,0,0,1-9.546-13.073,46.792,46.792,0,0,1-4.648-14.963,44.674,44.674,0,0,1,6.135-29.142,52.755,52.755,0,0,1,11.1-12.928,70.436,70.436,0,0,1,16.886-10.478c14.528-6.519,32.385-11.317,53.077-14.26A375.693,375.693,0,0,1,582.852,642.557Zm39.8,120.686a422.75,422.75,0,0,0,46.322-2.135,150.991,150.991,0,0,0,28.948-5.677,69.629,69.629,0,0,0,17.482-8.123,103.229,103.229,0,0,0,12.023-9.567,35.737,35.737,0,0,0,5.383-5.989,39.126,39.126,0,0,0,4.007-7.081,43.041,43.041,0,0,0,3.526-16.188,42.342,42.342,0,0,0-2.909-16.469,41.141,41.141,0,0,0-9.852-14.691c-5.265-5.065-12.894-9.713-22.676-13.813a191.818,191.818,0,0,0-29.007-9.169,408.161,408.161,0,0,0-47.207-7.978c-1.111-.131-2.07-.243-2.792-.334a393.3,393.3,0,0,0-43.052-2.174c-54.442,0-87.2,9.57-105.085,17.6a69.139,69.139,0,0,0-16.575,10.282,51.459,51.459,0,0,0-10.825,12.608,43.386,43.386,0,0,0-5.96,28.3,45.5,45.5,0,0,0,4.52,14.548,48.908,48.908,0,0,0,9.3,12.735c8.143,8.062,18.965,13.367,31.3,15.342,3.577.573,10.006,1.243,19.109,1.993a.65.65,0,0,1,.6.69,43.681,43.681,0,0,1-2.968,14.012,21.163,21.163,0,0,1-4.6,7.032c8.046-3.386,20.673-9.983,26.834-19.924a.649.649,0,0,1,.6-.306c32.939,2.22,73.392,4.2,74.159,4.234C610.021,763.161,616.551,763.243,622.657,763.243Z" transform="translate(1.83 1155.325)" fill="#222"/>
    <path id="パス_42353-2" data-name="パス 42353" d="M-106.172-4.664l-.469-.234a1.4,1.4,0,0,1-.211-.4,1.019,1.019,0,0,1-.023-.492l.234-.469.328-.375A13.784,13.784,0,0,0-105.3-8.18q.445-.8.891-1.641a2.73,2.73,0,0,0,.328-1.1,3.271,3.271,0,0,1,.281-1.1,1.4,1.4,0,0,1,.4-.211.855.855,0,0,1,.445-.023l.469.234a1.12,1.12,0,0,1,.234.539,4.158,4.158,0,0,1,.047.633,10.683,10.683,0,0,1-1.055,2.836,29.731,29.731,0,0,1-1.594,2.6l-.375.422h-.094V-4.9a1.4,1.4,0,0,1-.4.211A.855.855,0,0,1-106.172-4.664Zm13.547-.422-.492-.234q-.937-1.453-1.969-2.883a14.764,14.764,0,0,1-1.687-3.023l.234-.469a1.4,1.4,0,0,1,.4-.211.855.855,0,0,1,.445-.023l.469.234.469.8h.094l1.828,2.672.867,1.266a1.6,1.6,0,0,1,.352.516,1.276,1.276,0,0,1,.07.656l-.234.469a1.4,1.4,0,0,1-.4.211A.855.855,0,0,1-92.625-5.086Zm1.172-8.25q-.375-.094-.727-.187a1.852,1.852,0,0,1-.656-.328l-.141-.141-.469-.469a2.039,2.039,0,0,1-.258-.609,2.806,2.806,0,0,1-.07-.633,3.837,3.837,0,0,1,.3-.961,3.688,3.688,0,0,1,.586-.867l.422-.375a1.4,1.4,0,0,1,.492-.281,2.533,2.533,0,0,1,.633-.117q.352-.023.68-.023a2.591,2.591,0,0,1,.7.188,3.516,3.516,0,0,1,.656.375l.375.375a1.519,1.519,0,0,1,.469.961,6.483,6.483,0,0,1,0,1.1,3.922,3.922,0,0,1-.234.621,2.734,2.734,0,0,1-.328.527h-.094v.094a3.167,3.167,0,0,1-1.055.633A2.7,2.7,0,0,1-91.453-13.336Zm.891-1.992.281-.281v-.516a1.037,1.037,0,0,0-.422-.328.946.946,0,0,0-.516-.047l-.187.188-.422.516v.234l.047.141h.094l.094.141.8.094Zm6.867,12.8-.469-.258a1.4,1.4,0,0,1-.211-.4.855.855,0,0,1-.023-.445.951.951,0,0,1,.234-.445q.188-.211.328-.4,1.969-1.922,3.75-4.031A48.167,48.167,0,0,0-76.8-12.867v-.141h-.937q-1.359.094-2.672.211a15.884,15.884,0,0,0-2.578.445l-.469-.234a1.4,1.4,0,0,1-.211-.4.855.855,0,0,1-.023-.445l.234-.469a10.188,10.188,0,0,1,3.445-.809q1.8-.105,3.633-.152a3.082,3.082,0,0,1,.75.094,1.491,1.491,0,0,1,.656.352,1.613,1.613,0,0,1,.281.539,1.436,1.436,0,0,1,.047.633,7.541,7.541,0,0,1-.609,1.359q-.375.656-.8,1.266h-.094l-.234.422h-.094l-.328.609H-76.9l-.234.422a5.4,5.4,0,0,0-.445.4,1.243,1.243,0,0,0-.3.492l.328.188a1.734,1.734,0,0,0,.563.445q.328.164.656.352V-7.2l.422.234,1.313.891.375.328a4.37,4.37,0,0,0,.7.492,6.849,6.849,0,0,1,.75.492l.492.563.047.609-.234.469a1.775,1.775,0,0,1-.422.211.855.855,0,0,1-.445.023l-.656-.375q-1.125-.844-2.273-1.687a25.619,25.619,0,0,0-2.367-1.547l-.422-.422-1.5,1.781L-81.539-4.1l-.422.469-.187.188-.281.141v.094l-.141.141a3.426,3.426,0,0,1-.492.41A.891.891,0,0,1-83.7-2.531ZM-62.273.281l-.469-.234a1.4,1.4,0,0,1-.211-.4,1.019,1.019,0,0,1-.023-.492A32.787,32.787,0,0,0-61.008-4.16a30.839,30.839,0,0,0,1.547-3.5q-.937-.609-1.9-1.2A7.565,7.565,0,0,0-63.4-9.727l-.141.281a1,1,0,0,1-.422.258,1.131,1.131,0,0,1-.516.023l-.469-.234a1.4,1.4,0,0,1-.211-.4.855.855,0,0,1-.023-.445,17.072,17.072,0,0,0,1.453-2.531q.609-1.312,1.172-2.648a1.4,1.4,0,0,1,.4-.211.855.855,0,0,1,.445-.023l.469.234.188.281a23.972,23.972,0,0,1,2.6.141,9.929,9.929,0,0,1,2.461.586,1.107,1.107,0,0,1,.258.656q.023.375.023.75a54.6,54.6,0,0,1-2.18,6.492A37.612,37.612,0,0,1-61.055-.422h-.094l-.187.375h-.094V.047a1.4,1.4,0,0,1-.4.211A.855.855,0,0,1-62.273.281Zm3.563-9.68v-.094a17.674,17.674,0,0,1,.563-1.758,11.872,11.872,0,0,0,.516-1.758q-.937-.141-1.9-.234a13.43,13.43,0,0,0-1.945-.047l-.844,1.969a8.713,8.713,0,0,1,1.852.867Q-59.6-9.914-58.711-9.4Zm14.039,8.93a7.544,7.544,0,0,1-1.969-1.395,12,12,0,0,0-1.9-1.535,1.4,1.4,0,0,1-.211-.4.855.855,0,0,1-.023-.445l.234-.469a1.4,1.4,0,0,1,.4-.211,1.019,1.019,0,0,1,.492-.023,2.144,2.144,0,0,1,.633.3q.3.211.586.445l.609.516.375.328a6.1,6.1,0,0,0,.727.656l.469.4.281.234a1.4,1.4,0,0,1,.211.4.855.855,0,0,1,.023.445l-.234.469a.7.7,0,0,1-.328.188Zm17.906.047-.469-.234a1.4,1.4,0,0,1-.211-.4,1.019,1.019,0,0,1-.023-.492A33.65,33.65,0,0,0-25.734-6a26.054,26.054,0,0,0,.984-4.664H-26.2l-3.469.188v.141l.141,2.906-.234.469a1.4,1.4,0,0,1-.4.211.855.855,0,0,1-.445.023l-.469-.234A4.048,4.048,0,0,1-31.406-8.6a15.7,15.7,0,0,0-.094-1.734h-.094l-1.8.141-.469-.234a1.4,1.4,0,0,1-.211-.4.855.855,0,0,1-.023-.445l.234-.469a1.853,1.853,0,0,1,1.09-.328,7.2,7.2,0,0,0,1.184-.094V-13.2l-.047-.234a2.319,2.319,0,0,1,.117-.352,1.89,1.89,0,0,1,.164-.3,1.4,1.4,0,0,1,.4-.211.855.855,0,0,1,.445-.023l.469.234a1.371,1.371,0,0,1,.281.844v.938h.469q1.219-.094,2.438-.141t2.438-.047V-13.9l-.141-.914a2.319,2.319,0,0,1,.117-.352,1.89,1.89,0,0,1,.164-.3,1.4,1.4,0,0,1,.4-.211.855.855,0,0,1,.445-.023l.469.234a3.41,3.41,0,0,1,.352,1.441q.023.785.023,1.582.656,0,1.348.023a3,3,0,0,1,1.254.3,1.4,1.4,0,0,1,.211.4,1.019,1.019,0,0,1,.023.492l-.234.469a.832.832,0,0,1-.457.234,1.629,1.629,0,0,1-.551,0l-1.828-.094a35.623,35.623,0,0,1-1.125,5.086A28.422,28.422,0,0,1-25.922-.656a1.4,1.4,0,0,1-.4.211A.855.855,0,0,1-26.766-.422ZM-8.93-.469-9.4-.7a1.4,1.4,0,0,1-.211-.4.855.855,0,0,1-.023-.445l.469-.75.188-.187.8-.867A11.611,11.611,0,0,0-7.008-4.945l1.031-1.687q.234-.7.516-1.383a7.2,7.2,0,0,0,.422-1.43l-.844-.094H-7.8q-1.359.047-2.672.211t-2.578.4a2.319,2.319,0,0,1-.352-.117,1.89,1.89,0,0,1-.3-.164,1.4,1.4,0,0,1-.211-.4.855.855,0,0,1-.023-.445l.234-.469a15.2,15.2,0,0,1,2.859-.586q1.5-.164,3-.258h1.969q.609.047,1.219.141a2.892,2.892,0,0,1,1.125.422,1.308,1.308,0,0,1,.328.891v1.031q-.422,1.125-.82,2.227A10.824,10.824,0,0,1-5.086-4.523q-.375.563-.8,1.172t-.844,1.242l-.187.188-.469.516-.187.188-.141.141-.141.141a2.165,2.165,0,0,1-.492.375A.921.921,0,0,1-8.93-.469Zm-2.344-13.523a2.319,2.319,0,0,1-.352-.117,1.89,1.89,0,0,1-.3-.164,1.363,1.363,0,0,1-.211-.41.9.9,0,0,1-.023-.457l.234-.469a4.574,4.574,0,0,1,1.758-.328,17.69,17.69,0,0,0,1.852-.094h2.438l.469.234a1.4,1.4,0,0,1,.211.4.855.855,0,0,1,.023.445l-.234.492a.7.7,0,0,1-.328.188l-.375.094H-8.227ZM6.891-.469,6.422-.7a1.4,1.4,0,0,1-.211-.4,1.019,1.019,0,0,1-.023-.492A37.22,37.22,0,0,0,8.32-4.945,20.477,20.477,0,0,0,9.938-8.555Q9-9.07,8.039-9.492a5.185,5.185,0,0,0-1.758-.469l-.234.188a1.4,1.4,0,0,1-.4.211,1.019,1.019,0,0,1-.492.023l-.469-.234a1.4,1.4,0,0,1-.211-.4,1.019,1.019,0,0,1-.023-.492l.234-.469.188-.187h.094q.563-1.266.961-2.156T6.8-15.234a1.4,1.4,0,0,1,.4-.211.855.855,0,0,1,.445-.023,22.954,22.954,0,0,0,2.836.4,10.2,10.2,0,0,1,2.789.609.936.936,0,0,1,.211.516q.023.281.023.609-.8,2.859-1.875,5.7A29.209,29.209,0,0,1,8.719-2.016H8.625l-.7,1.125-.141.047L7.688-.7a.7.7,0,0,1-.352.188A2.048,2.048,0,0,1,6.891-.469Zm3.75-9.867v-.094q.234-.656.469-1.289a8.822,8.822,0,0,0,.375-1.336q-.844-.141-1.758-.234t-1.8-.141l-.7,1.688a11.419,11.419,0,0,1,1.734.609,16.25,16.25,0,0,1,1.641.844ZM15.914-13.1a4.059,4.059,0,0,1-1.137-.8,9.013,9.013,0,0,0-1.09-.914,1.4,1.4,0,0,1-.211-.4.855.855,0,0,1-.023-.445l.234-.469a1.4,1.4,0,0,1,.4-.211.855.855,0,0,1,.445-.023l1.055.656.422.375.7.609a2.846,2.846,0,0,1,.234.422.849.849,0,0,1,.047.492l-.234.469a1.4,1.4,0,0,1-.4.211A.855.855,0,0,1,15.914-13.1ZM17.7-15.094a2.319,2.319,0,0,1-.352-.117,1.89,1.89,0,0,1-.3-.164l-.281-.281-1.031-.516a1.4,1.4,0,0,1-.211-.4.855.855,0,0,1-.023-.445l.234-.469a1.4,1.4,0,0,1,.4-.211,1.019,1.019,0,0,1,.492-.023,6.075,6.075,0,0,1,.8.328q.375.188.75.422l.422.516.047.609-.234.469a.7.7,0,0,1-.328.188ZM25.688-.469a7.544,7.544,0,0,1-1.969-1.395A12,12,0,0,0,21.82-3.4a1.4,1.4,0,0,1-.211-.4.855.855,0,0,1-.023-.445l.234-.469a1.4,1.4,0,0,1,.4-.211,1.019,1.019,0,0,1,.492-.023,2.144,2.144,0,0,1,.633.3q.3.211.586.445l.609.516.375.328a6.1,6.1,0,0,0,.727.656l.469.4.281.234a1.4,1.4,0,0,1,.211.4.855.855,0,0,1,.023.445l-.234.469a.7.7,0,0,1-.328.188ZM40.359-.8l-.469-.234a1.95,1.95,0,0,1-.211-.492,2.04,2.04,0,0,1-.07-.539l.047-.047V-5.18L39.7-6.492l-.047-.047V-9.773l.047-1.5q-.047-1.172-.141-2.285T39.328-15.8l.234-.469a1.4,1.4,0,0,1,.4-.211.855.855,0,0,1,.445-.023l.469.234a8.413,8.413,0,0,1,.539,2.613q.07,1.395.117,2.8h.094l.188.375h.094l.563.563.375.328.844.844.422.422.656.7a1.4,1.4,0,0,1,.211.4A1.019,1.019,0,0,1,45-6.727l-.234.469a1.4,1.4,0,0,1-.4.211.855.855,0,0,1-.445.023l-.469-.234L41.625-8.086l-.141-.094v1.641l.047,1.313-.047.047v3.633l-.281.516a1.4,1.4,0,0,1-.4.211A.855.855,0,0,1,40.359-.8Zm7.57-10.992a2.319,2.319,0,0,1-.352-.117,3.212,3.212,0,0,1-.328-.164v-.094q-.562-.328-1.1-.68a12.129,12.129,0,0,1-1.055-.773,1.4,1.4,0,0,1-.211-.4.855.855,0,0,1-.023-.445l.234-.492a1.4,1.4,0,0,1,.4-.211.855.855,0,0,1,.445-.023l2.18,1.383a3.52,3.52,0,0,0,.375.328,1.29,1.29,0,0,1,.328.375l.047.563-.234.469a.7.7,0,0,1-.328.188Zm1.266-2.3q-.469-.234-.937-.5t-.891-.551a1.163,1.163,0,0,1-.234-.4.855.855,0,0,1-.023-.445l.258-.469a1.4,1.4,0,0,1,.4-.211,1.019,1.019,0,0,1,.492-.023l1.781.984a1.4,1.4,0,0,1,.211.4,1.019,1.019,0,0,1,.023.492l-.234.492a1.4,1.4,0,0,1-.4.211A.855.855,0,0,1,49.2-14.086ZM61.359-.469,60.891-.7a.7.7,0,0,1-.187-.352q-.047-.211-.094-.4A13.919,13.919,0,0,0,62.2-6.586q.281-2.672.563-5.391v-2.016L62.531-15.7l.234-.469a1.4,1.4,0,0,1,.4-.211.855.855,0,0,1,.445-.023l.469.234a1.785,1.785,0,0,1,.375.961q.047.539.141,1.078v2.156q-.281,2.859-.586,5.766A13.8,13.8,0,0,1,62.2-.7a1.4,1.4,0,0,1-.4.211A.855.855,0,0,1,61.359-.469Zm-3.75-6.4a2.319,2.319,0,0,1-.352-.117,1.89,1.89,0,0,1-.3-.164,2.067,2.067,0,0,1-.211-.469,1.789,1.789,0,0,1-.07-.516l.047-.656-.094-1.359V-13.9a2.319,2.319,0,0,1,.117-.352,1.89,1.89,0,0,1,.164-.3,1.163,1.163,0,0,1,.4-.234.855.855,0,0,1,.445-.023l.469.258.234.469v3.844l.094,2.625-.234.469a.7.7,0,0,1-.328.188ZM75.563-2.18q-.234-.047-.492-.117a1.307,1.307,0,0,1-.445-.211,1.4,1.4,0,0,1-.211-.4.855.855,0,0,1-.023-.445l.234-.469a12.433,12.433,0,0,0,4.383-1.289,16.124,16.124,0,0,0,3.82-2.7l1.547-1.547.867-.75a.624.624,0,0,1,.07-.281,2.62,2.62,0,0,1,.164-.281.986.986,0,0,1,.445-.258,1.247,1.247,0,0,1,.539-.023l.469.234a1.4,1.4,0,0,1,.211.4.855.855,0,0,1,.023.445,1.851,1.851,0,0,1-.281.586q-.187.258-.375.539h-.094v.094l-.562.516-.422.469-.141.141q-.727.563-1.383,1.148T82.594-5.133a22.287,22.287,0,0,1-3.328,1.945A11.04,11.04,0,0,1,75.563-2.18Zm1.5-8.719-.469-.234-1.453-1.312-.8-.7a1.4,1.4,0,0,1-.211-.4.936.936,0,0,1-.023-.469l.234-.469a1.4,1.4,0,0,1,.4-.211.855.855,0,0,1,.445-.023,1.514,1.514,0,0,1,.609.352l.563.516.047.141,1.453,1.172a1.834,1.834,0,0,1,.234.422.946.946,0,0,1,.047.516l-.234.469a1.4,1.4,0,0,1-.4.211A.855.855,0,0,1,77.063-10.9ZM96.047-.094l-.469-.234a2.588,2.588,0,0,1-.2-.387.875.875,0,0,1-.035-.48,60.737,60.737,0,0,0,2.941-5.883,63.214,63.214,0,0,0,2.309-6.164l-3.07-.117-.352.047q-.562.984-1.172,1.98t-1.2,1.98a1.578,1.578,0,0,1-.4.258.849.849,0,0,1-.492.047l-.469-.211a1.672,1.672,0,0,1-.223-.4.782.782,0,0,1-.035-.445q.633-1.219,1.383-2.4t1.453-2.449a1.058,1.058,0,0,1,.7-.328q.4-.023.82-.023,1.266.094,2.531.129a6.565,6.565,0,0,1,2.344.48,1.672,1.672,0,0,1,.223.4.925.925,0,0,1,.035.492,63.928,63.928,0,0,1-2.414,6.867A48.551,48.551,0,0,1,96.938-.4a2.05,2.05,0,0,1-.4.234A.994.994,0,0,1,96.047-.094ZM-61.23,26.984l-.469-.234a1.363,1.363,0,0,1-.211-.41,1.074,1.074,0,0,1-.023-.5l.234-.469a7.744,7.744,0,0,0,.609-.914q.281-.492.563-1.008a9.083,9.083,0,0,0,.375-1.219,4.489,4.489,0,0,0,.094-1.312,2.851,2.851,0,0,0-.375-1.266,5.326,5.326,0,0,0-.844-1.078,3.153,3.153,0,0,0-1.359-.609,8.642,8.642,0,0,0-1.594-.141,9.961,9.961,0,0,1-.3,3.164,9.218,9.218,0,0,1-1.289,2.789h-.094l-.141.281-.375.422-.281.281L-67,24.9v.094a2.961,2.961,0,0,1-1.172.586,4.372,4.372,0,0,1-1.359.117,3.423,3.423,0,0,1-.7-.258,3.147,3.147,0,0,1-.609-.4,2.548,2.548,0,0,1-.574-1.289,10.265,10.265,0,0,1-.105-1.477A6.075,6.075,0,0,1-70.9,20a9.924,9.924,0,0,1,1.324-1.992,5.951,5.951,0,0,1,2.109-1.453,9.3,9.3,0,0,1,2.438-.609,17.223,17.223,0,0,1,2.391.164,5.972,5.972,0,0,1,2.156.727l.563.469V17.4h.094l.469.516a4.539,4.539,0,0,1,.984,1.852,6.622,6.622,0,0,1,.164,2.18,8.116,8.116,0,0,1-.738,2.438,18.1,18.1,0,0,1-1.3,2.227l-.141.141a1.4,1.4,0,0,1-.4.211A.855.855,0,0,1-61.23,26.984Zm-6.984-3.4a4.259,4.259,0,0,0,.75-.75,6.6,6.6,0,0,0,.563-.844,7.284,7.284,0,0,0,.68-1.875,8.125,8.125,0,0,0,.164-2.062h-.187q-.281.094-.539.188a2.842,2.842,0,0,0-.492.234v.094l-1.031.7a7.79,7.79,0,0,0-1.055,1.8,4.412,4.412,0,0,0-.3,2.086l.141.563a.722.722,0,0,0,.281.117,2.019,2.019,0,0,0,.328.023Zm18.352,3.633a3.019,3.019,0,0,1-.82-.316,3.3,3.3,0,0,1-.727-.551,2.229,2.229,0,0,1-.469-.867,5.459,5.459,0,0,1-.187-1.008q.141-.7.328-1.336a3.349,3.349,0,0,1,.656-1.2,4.327,4.327,0,0,1,.914-.7q.492-.281.961-.609l.563-.187v-.609l-.141-1.734h-.281a7.12,7.12,0,0,0-1.172.094l-1.125.188q-.234-.047-.492-.117a1.6,1.6,0,0,1-.469-.211,1.4,1.4,0,0,1-.211-.4.855.855,0,0,1-.023-.445l.234-.469a6.93,6.93,0,0,1,1.523-.3q.8-.07,1.594-.117V16.18a2.759,2.759,0,0,0-.234-.879,2.2,2.2,0,0,1-.187-.926l.234-.469A1.4,1.4,0,0,1-49,13.7a.855.855,0,0,1,.445-.023l.469.234a3.078,3.078,0,0,1,.469,1.043q.141.574.234,1.184H-47a5.4,5.4,0,0,1,.914-.117q.492-.023.961-.023l.469.234a1.4,1.4,0,0,1,.211.4.855.855,0,0,1,.023.445l-.234.469a1.713,1.713,0,0,1-1.078.3,4.151,4.151,0,0,0-1.172.117l-.047.656.141,1.359h.234q.563-.094,1.125-.141t1.172-.047a6.853,6.853,0,0,1,1.359.422,7.211,7.211,0,0,1,1.266.7l.563.563a3.186,3.186,0,0,1,.762,1.383,5.487,5.487,0,0,1,.152,1.664,5.369,5.369,0,0,1-.105,1.078,3.117,3.117,0,0,1-.387.984,2.05,2.05,0,0,1-.4.234.849.849,0,0,1-.492.047l-.469-.234a1.4,1.4,0,0,1-.211-.4,1.019,1.019,0,0,1-.023-.492,2.225,2.225,0,0,0,.188-.914q0-.492.047-.961A2.33,2.33,0,0,0-42.293,23a2.283,2.283,0,0,0-.633-.727A4.873,4.873,0,0,0-44,21.758a3.118,3.118,0,0,0-1.219-.141l-1.5.188a9.2,9.2,0,0,1-.234,2.484,5.733,5.733,0,0,1-1.031,2.156l-.234.234a2.649,2.649,0,0,1-.773.41A2.8,2.8,0,0,1-49.863,27.219Zm.469-1.992a3.736,3.736,0,0,0,.656-1.289,5.537,5.537,0,0,0,.188-1.477h-.094l-.7.375v.094l-.328.281h-.094a4.678,4.678,0,0,0-.3.773,2.892,2.892,0,0,0-.117.82l.141.375.516.141Zm9.211-6.375-.492-.234a2.388,2.388,0,0,0-.68-.469,4.661,4.661,0,0,1-.727-.422,1.4,1.4,0,0,1-.211-.4.855.855,0,0,1-.023-.445l.234-.469a1.4,1.4,0,0,1,.4-.211,1.019,1.019,0,0,1,.492-.023l1.711.891a2.332,2.332,0,0,1,.3.492,1.036,1.036,0,0,1,.07.586l-.234.469a1.4,1.4,0,0,1-.4.211A.855.855,0,0,1-40.184,18.852Zm20.25,11.7-.469-.234a.7.7,0,0,1-.187-.352q-.047-.211-.094-.4a14.521,14.521,0,0,0,.563-2.93q.141-1.547.188-3.094l-.047-.141h-1.734l-.867.094H-24.5l-2.2.188a2.319,2.319,0,0,1-.352-.117,1.89,1.89,0,0,1-.3-.164,1.4,1.4,0,0,1-.211-.4.855.855,0,0,1-.023-.445l.234-.469a3.842,3.842,0,0,1,1.406-.3,14.4,14.4,0,0,0,1.453-.117h1.875l2.508-.094v-.234l-.047-.469.234-.469a1.4,1.4,0,0,1,.4-.211.855.855,0,0,1,.445-.023l.469.234a1.04,1.04,0,0,1,.328.563,3.124,3.124,0,0,1,.07.656H-17.1a1.967,1.967,0,0,1,1.031.281,1.4,1.4,0,0,1,.211.4.855.855,0,0,1,.023.445l-.234.469a1.1,1.1,0,0,1-.492.234,3.009,3.009,0,0,1-.539.047l-.984-.047q-.047,1.781-.187,3.539a10.408,10.408,0,0,1-.82,3.328,1.4,1.4,0,0,1-.4.211A.855.855,0,0,1-19.934,30.547Zm-10.383-1.219-.469-.234a1.406,1.406,0,0,1-.281-.867v-.961l.047-1.758-.141-1.781.094-.937-.047-.047V20.4l-.047-.7H-31.3l-.281.328-.375.328-.328.328h-.094l-.094.234a1.4,1.4,0,0,1-.4.211,1.019,1.019,0,0,1-.492.023l-.469-.234a1.4,1.4,0,0,1-.211-.4.855.855,0,0,1-.023-.445.84.84,0,0,1,.234-.469,5.114,5.114,0,0,0,.375-.422,24.253,24.253,0,0,0,2.355-2.3q1.09-1.219,2.215-2.437a1.4,1.4,0,0,1,.4-.211.855.855,0,0,1,.445-.023l.469.234a1.4,1.4,0,0,1,.211.4.855.855,0,0,1,.023.445,1.453,1.453,0,0,1-.3.516,3.055,3.055,0,0,0-.352.469l-1.641,1.781h.047a1.674,1.674,0,0,1,.3,1.055,9.329,9.329,0,0,0,.023,1.148V22.6l.047.656-.047,1.641.094.469v1.992a2.922,2.922,0,0,0-.047.914,1.053,1.053,0,0,1-.234.82,1.4,1.4,0,0,1-.4.211A.936.936,0,0,1-30.316,29.328Zm7.336-1.969a11.571,11.571,0,0,1-1.406-.68q-.7-.4-1.359-.844a1.4,1.4,0,0,1-.211-.4.855.855,0,0,1-.023-.445l.234-.469a1.4,1.4,0,0,1,.4-.211,1.019,1.019,0,0,1,.492-.023l2.531,1.406a1.926,1.926,0,0,1,.234.41.9.9,0,0,1,.047.5l-.234.469a.7.7,0,0,1-.328.188Zm-3.609-7.1a2.319,2.319,0,0,1-.352-.117,1.89,1.89,0,0,1-.3-.164,1.4,1.4,0,0,1-.211-.4.855.855,0,0,1-.023-.445l.234-.469a11.951,11.951,0,0,1,2.156-.375l2.25-.187h2.813l.047.047h2.133L-17,18.1l.375.094a.7.7,0,0,1,.328.188,1.4,1.4,0,0,1,.211.4.855.855,0,0,1,.023.445l-.234.469a1.034,1.034,0,0,1-.4.188q-.211.047-.445.094l-.609-.047-.047.047h-2.273l-.047-.047h-2.672l-1.9.188Q-25.652,20.211-26.59,20.258Zm1.781-2.531-.469-.234a1.406,1.406,0,0,1-.281-.867v-.961l.047-.047V12.969l-.047-1.219a1.438,1.438,0,0,1,.211-.539q.164-.258.3-.492a1.284,1.284,0,0,1,.914-.234,3.555,3.555,0,0,0,1.008-.047h3.469l.563.094a1.265,1.265,0,0,1,.539.234.986.986,0,0,1,.258.445,1.247,1.247,0,0,1,.023.539l-.047.328.234,2.7q-.047.7-.141,1.383a2.265,2.265,0,0,1-.539,1.2,1.921,1.921,0,0,1-1.2.281,6.338,6.338,0,0,0-1.336.047h-3.094Zm4.734-1.922v-.094l.047-.516a4.171,4.171,0,0,0-1.1-.141h-1.148l-1.406.094-.047.7h2.3Zm-11.977-.891-.469-.234a1.363,1.363,0,0,1-.211-.41,1.074,1.074,0,0,1-.023-.5l.234-.469,1.266-1.125,1.055-.937a1.4,1.4,0,0,1,.4-.211A.855.855,0,0,1-29.355,11l.469.234a1.4,1.4,0,0,1,.211.4.855.855,0,0,1,.023.445,1.453,1.453,0,0,1-.3.516q-.211.234-.445.469l-.562.375-.187.281-.773.727-.281.141v.094a1.4,1.4,0,0,1-.4.211A.855.855,0,0,1-32.051,14.914Zm11.977-1.664v-.094l-.047-.891h-2.953l-.656.047v.609l.047.375h.469l2.672-.094Zm16.5,14.766a2.344,2.344,0,0,1-.937-.281,4.6,4.6,0,0,1-.8-.562,2.623,2.623,0,0,1-.586-1.043,4.287,4.287,0,0,1-.164-1.184,6.489,6.489,0,0,1,.258-.984,3.134,3.134,0,0,1,.492-.891l.188-.187a2.785,2.785,0,0,1,1.289-.75,5.122,5.122,0,0,1,1.57-.141V20.258l-.094-1.828.234-.469a1.4,1.4,0,0,1,.4-.211.855.855,0,0,1,.445-.023l.469.234a2.108,2.108,0,0,1,.3,1.008q.023.539.07,1.1v1.875q.656.141,1.313.3a2.69,2.69,0,0,1,1.172.633,1.163,1.163,0,0,1,.234.4.855.855,0,0,1,.023.445l-.258.469a1.4,1.4,0,0,1-.4.211,1.019,1.019,0,0,1-.492.023,4.743,4.743,0,0,0-.8-.4,2.435,2.435,0,0,0-.891-.164,12.378,12.378,0,0,1-.187,1.594,3.706,3.706,0,0,1-.609,1.43l-.328.328a4.367,4.367,0,0,1-.891.539A3.127,3.127,0,0,1-3.574,28.016Zm.656-2.18a1.746,1.746,0,0,0,.445-.937q.07-.516.117-1.078h-.7l-.656.234v.094l-.375.422-.141.656.234.609.563.281Zm-6.8-5.391-.492-.234a1.4,1.4,0,0,1-.211-.4,1.019,1.019,0,0,1-.023-.492l1.148-2.25H-9.48l-.586.047-.469-.234a1.4,1.4,0,0,1-.211-.4.855.855,0,0,1-.023-.445l.234-.469a2.648,2.648,0,0,1,1.066-.352q.6-.07,1.16-.164a4.391,4.391,0,0,0,.375-.9,2.7,2.7,0,0,1,.469-.9,1.4,1.4,0,0,1,.4-.211.855.855,0,0,1,.445-.023l.469.234a1.4,1.4,0,0,1,.211.4,1.019,1.019,0,0,1,.023.492l-.141.445h.141q.469-.141.984-.246a3.787,3.787,0,0,1,1.078-.059l.516.3a1.4,1.4,0,0,1,.211.4.855.855,0,0,1,.023.445l-.234.469a1.056,1.056,0,0,1-.375.188q-.187.047-.422.094l-.422-.047-2.391.516q-.422.891-.891,1.8a17.849,17.849,0,0,1-1.031,1.758,1.4,1.4,0,0,1-.4.211A.855.855,0,0,1-9.715,20.445ZM3.012,17.914a.977.977,0,0,1-.434-.211q-.2-.164-.387-.3L.973,16.461.832,16.32.27,15.9a2.655,2.655,0,0,1-.3-.469.939.939,0,0,1-.07-.562L.129,14.4a1.4,1.4,0,0,1,.4-.211.855.855,0,0,1,.445-.023l.469.234v.094l.656.422.141.141.539.422v.094l.609.328.141.141v.094h.094A2.165,2.165,0,0,1,4,16.625a.921.921,0,0,1,.094.586l-.234.469a1.4,1.4,0,0,1-.4.211A.855.855,0,0,1,3.012,17.914Zm15.773,9.211q-1.359-.281-2.719-.527a5.022,5.022,0,0,1-2.437-1.184,6.894,6.894,0,0,1-1.5-2.7,14.171,14.171,0,0,1-.516-3.07H11.52q-.469.141-.937.328a2.819,2.819,0,0,1-1.055.188l-.469-.234a1.4,1.4,0,0,1-.211-.4.855.855,0,0,1-.023-.445l.234-.469q.633-.281,1.242-.492t1.266-.4V16.648l-.047-.234.047-.7L11.52,15.2a4.718,4.718,0,0,0,.047-.668.781.781,0,0,1,.234-.574,1.4,1.4,0,0,1,.4-.211.855.855,0,0,1,.445-.023l.469.234a1.067,1.067,0,0,1,.258.621q.023.34.023.715l-.047.281.047.8-.047.141.047.8h.094q1.641-.422,3.3-.7a17.82,17.82,0,0,1,3.445-.234l.563.094a1.106,1.106,0,0,1,.516.234,1.459,1.459,0,0,1,.27.539,1.33,1.33,0,0,1,.012.633,4.839,4.839,0,0,1-.328.7,7.721,7.721,0,0,1-.422.656,1.026,1.026,0,0,0-.375.4q-.141.258-.281.492H20.1l-.328.609h-.094l-.141.281-.844.938-.187.188-.141.141a1.249,1.249,0,0,1-.422.281.946.946,0,0,1-.516.047l-.469-.234a1.4,1.4,0,0,1-.211-.4.855.855,0,0,1-.023-.445l.375-.656q.609-.609,1.172-1.266a6.892,6.892,0,0,0,.938-1.406h-.516a25.039,25.039,0,0,0-2.672.422q-1.312.281-2.625.516v.516a15.286,15.286,0,0,0,.469,2.438,5.95,5.95,0,0,0,1.125,2.156,9.385,9.385,0,0,0,2.32.75,16.876,16.876,0,0,0,2.508.281l1.266-.141.469.234a1.163,1.163,0,0,1,.234.4,1.019,1.019,0,0,1,.023.492l-.258.492a2.937,2.937,0,0,1-1.312.352Q19.535,27.125,18.785,27.125Zm11.672.984-.469-.234a1.4,1.4,0,0,1-.211-.4,1.019,1.019,0,0,1-.023-.492l.234-.469a14.616,14.616,0,0,0,1.758-2.062q.773-1.1,1.43-2.227a11.71,11.71,0,0,0,.492-1.125q.211-.562.4-1.172a1.4,1.4,0,0,1,.4-.211.855.855,0,0,1,.445-.023l.469.234a1.106,1.106,0,0,1,.234.516,3.712,3.712,0,0,1,.047.609,12.879,12.879,0,0,1-1.125,2.461q-.7,1.2-1.453,2.32l-.375.422h-.094l-.328.586-.328.375-.187.188-.328.328-.141.141a1.4,1.4,0,0,1-.4.211A.855.855,0,0,1,30.457,28.109ZM27.785,23.82l-.469-.234q-.375-.7-.7-1.453a13.022,13.022,0,0,1-.562-1.547l.234-.469a1.4,1.4,0,0,1,.4-.211.855.855,0,0,1,.445-.023l.469.234.188.188q.328.656.633,1.359a6.791,6.791,0,0,1,.445,1.453l-.234.469a1.4,1.4,0,0,1-.4.211A.855.855,0,0,1,27.785,23.82Zm3.141-.984-.469-.234a11.735,11.735,0,0,1-.656-1.336,7.2,7.2,0,0,1-.422-1.43l.234-.469a1.4,1.4,0,0,1,.4-.211.855.855,0,0,1,.445-.023l.469.234a8.434,8.434,0,0,1,.7,1.336A5.508,5.508,0,0,1,32,22.133l-.234.469a1.4,1.4,0,0,1-.4.211A.855.855,0,0,1,30.926,22.836Zm15.867,5.742-.469-.234a.817.817,0,0,1-.258-.516q-.023-.281-.07-.562v-2.7L45.9,23.4l.047-.047V18.008L45.9,17.82l.047-.047V14.188l-.141-1.172.234-.469a1.4,1.4,0,0,1,.4-.211.855.855,0,0,1,.445-.023l.469.234a1.229,1.229,0,0,1,.3.75,4.254,4.254,0,0,0,.117.8v3.68l-.047.188.047.141.375.188.8.7.328.281.328.281.75.75.141.141.984.938v.094h.094a1.4,1.4,0,0,1,.211.4,1.019,1.019,0,0,1,.023.492l-.234.469a1.4,1.4,0,0,1-.4.211.855.855,0,0,1-.445.023l-.516-.281L49.09,21.711l-1.312-1.219v2.953l-.047.469.094.656v2.508l.047.8-.234.469a1.4,1.4,0,0,1-.4.211A.855.855,0,0,1,46.793,28.578ZM69.574,26.7q-1.219-.8-2.449-1.7t-2.473-1.816l-.164.188-.891.656v.07q-1.055.68-2.062,1.406a5.563,5.563,0,0,1-2.25.961l-.352-.187a.829.829,0,0,1-.164-.3.67.67,0,0,1,0-.352q.445-1.2,1.008-2.355t1.1-2.285l-.539-.516q-.727-.8-1.535-1.57t-1.488-1.547v-.445l.164-.352a3.485,3.485,0,0,1,1.313-.27q.7-.012,1.43-.059l2.039.188q.492-1.031.961-2.145t1.008-2.145a1.89,1.89,0,0,1,.3-.164.477.477,0,0,1,.328-.023l.516.281a7.021,7.021,0,0,1,.609,1.8,9.9,9.9,0,0,0,.539,1.828h.117a5.039,5.039,0,0,1,.914-.105q.469-.012.961-.012l.914.023,1.289-.023a2.179,2.179,0,0,0,.609.152,1.183,1.183,0,0,1,.563.2,1,1,0,0,1,.176.3.67.67,0,0,1,.012.375l-.187.375-.445.352-.117.117-.187.164h-.07v.07l-.4.258v.07l-.7.563H69.9v.094l-.328.281-.328.234-.211.117v.07l-.281.234-.117.141-.234.188-.328.3-.141.164q.633,1.359,1.2,2.789T70.3,26.141l-.187.375a.83.83,0,0,1-.258.141A.885.885,0,0,1,69.574,26.7ZM61.02,24.172q.914-.633,1.828-1.348a10.2,10.2,0,0,1,1.9-1.184.987.987,0,0,0,.387.105.507.507,0,0,1,.34.152l.164.188.188.164a5.361,5.361,0,0,0,.891.762q.469.316.961.621v-.117a11.564,11.564,0,0,0-.691-1.605,5.42,5.42,0,0,1-.551-1.676l.281-.516.117-.047v-.047h.047L67,19.391l.68-.562,1.359-1.2.609-.492h-.117l-1.078.023-.914-.023-1.57.164-.352-.164a9.791,9.791,0,0,1-.562-1.242,7.286,7.286,0,0,1-.352-1.336h-.094q-.352.773-.68,1.523a14.569,14.569,0,0,1-.75,1.477,1.606,1.606,0,0,1-.363.234.74.74,0,0,1-.457.047l-2.7-.211-.047.117,1.266,1.172.281.281.094.094.117.234h.07l.539.516.281.141a2.831,2.831,0,0,1,.176.3.494.494,0,0,1,.035.352,11.851,11.851,0,0,1-.773,1.688,10.256,10.256,0,0,0-.75,1.688H61Z" transform="translate(596.14 1856.995)" fill="#222"/>
  </g>
</svg>
