<svg height="109.11" viewBox="0 0 168.233 109.11" width="168.233" xmlns="http://www.w3.org/2000/svg"><g fill="#fff" stroke-linecap="round" stroke-linejoin="round" transform="matrix(.996 .087 -.087 .996 -1301.611066 -942.542397)"><path d="m1434.49133301 918.40649414 5.67663574-13.54089355.35388184-.84399414-.90722657-.12054444c-21.79980468-2.89648437-37.37329101-10.08581543-39.67529297-18.31561279l-.08239746-.29492188-.272583-.1395874c-7.54870606-3.86608887-11.50415039-8.20532226-11.7565918-12.89715576-.16821289-3.12628174 1.29956055-6.47399902 4.36230469-9.95025635 2.35058593-2.66778564 5.58764648-5.362854 9.62121582-8.01031494l.64416504-.42285156-.48266602-.60076904c-1.54736328-1.9260254-2.33203125-3.90319825-2.33203125-5.87658692 0-2.82324219 1.55029297-5.59020996 4.60766602-8.22399902 3.04467773-2.62280274 7.42236328-4.98522949 13.01147461-7.02166748 5.62597656-2.04992676 12.18261718-3.66015625 19.4880371-4.78601074 7.57507325-1.16741944 15.62341309-1.75933838 23.92138672-1.75933838 15.04150391 0 29.50476075 1.99908447 40.72546387 5.62915039 5.43237305 1.75744629 9.91247559 3.82348632 13.31567383 6.14086914 3.4197998 2.32861328 5.60949707 4.81457519 6.50842285 7.38879394l.11999512.34362793.35021972.0991211c3.70227051 1.04803466 7.15563965 2.44970703 10.26416016 4.16601562 3.07653809 1.6986084 5.76477051 3.67718506 7.99011231 5.88079834 4.57519531 4.53045654 6.99353027 9.81158447 6.99353027 15.27264404 0 3.64501954-1.06298828 7.18743897-3.15942383 10.52868653-2.04138184 3.25341797-4.97338867 6.18615722-8.71472168 8.71673584-3.75927734 2.54272461-8.14697266 4.55194092-13.04125976 5.97192383-5.07275391 1.47174072-10.47155762 2.24310302-16.04650879 2.29266357l-.12976075.00109863-.12060546.04760742c-5.6760254 2.23632813-12.41259766 3.99871827-20.02258301 5.23809815-7.89245606 1.28540039-16.31469727 1.93713379-25.03271485 1.93713379-2.28356933 0-4.60131836-.0501709-7.08581543-.15338135l-.23815918-.0098877-.19470214.13745118z"/><path d="m1460.66931152 826.30194092c-8.2623291 0-16.27478027.5892334-23.81481933 1.7512207-7.26000977 1.11883545-13.77197266 2.71765137-19.35498047 4.75183106-5.50927734 2.00738525-9.81396484 4.32702636-12.79418945 6.89434814-2.89611817 2.49481201-4.36450196 5.08337402-4.36450196 7.69366455 0 1.80987549.73266602 3.6395874 2.17773438 5.43817139.24707031.30761719.35290527.70532226.29138183 1.09515381-.06152343.3897705-.28466797.73553466-.61462402.9520874-3.98132324 2.61315918-7.17077637 5.26696777-9.47998047 7.88787842-2.93737793 3.33380127-4.34655762 6.51318359-4.18859863 9.4498291.23815918 4.4251709 4.0657959 8.56744385 11.37670898 12.31182861.34753418.17791748.6048584.49291992.71008301.86889649.52392578 1.87335205 1.81506348 3.73565673 3.83728027 5.53509521 2.06469727 1.83728027 4.84997559 3.57305908 8.27844239 5.15917969 7.00610351 3.24127197 16.33483886 5.70196533 26.97753906 7.11602783.43225098.05743408.81311035.31292725 1.0300293.69116211.21691894.37817383.24536132.83581543.07678222 1.23791504l-4.73376465 11.29168701 16.66711426-11.76855469c.25244141-.17834472.55651856-.26776123.86560059-.25518799 2.47473144.10284424 4.78295898.152771 7.05676269.152771 8.68041993 0 17.06481934-.64868164 24.92016602-1.92803955 7.56079101-1.23132324 14.24890137-2.98040771 19.87854004-5.19848633.1595459-.06286621.32922363-.09588623.50073242-.09741211 5.51098633-.04895019 10.84631348-.81103515 15.85766602-2.26495361 4.82397461-1.39959717 9.14538574-3.37774658 12.84411621-5.87945557 3.66015625-2.47564697 6.5246582-5.33850097 8.51391601-8.50891113 2.02539063-3.22808838 3.05236817-6.64526367 3.05236817-10.15667725 0-5.27001953-2.34655762-10.37921142-6.78601075-14.77520752-2.17944336-2.15826416-4.81591796-4.09802246-7.83581543-5.76544189-3.06188964-1.69055176-6.46557617-3.07177734-10.11657714-4.10522461-.43908692-.12432861-.79003907-.45477295-.94042969-.88555908-.84838867-2.42962647-2.94836426-4.79858399-6.24145508-7.04095459-3.3482666-2.27990723-7.76818848-4.31658936-13.13720703-6.0534668-11.15283203-3.60809326-25.53967285-5.59521484-40.51000977-5.59521484m0-1.39996338c31.42712403 0 57.34533692 8.559021 61.21044922 19.62805176 15.14038086 4.2859497 25.75708008 14.31097412 25.75708008 25.99298095 0 15.45898438-18.59997559 28.00500489-41.65563965 28.20996094-11.27404785 4.4420166-27.39978027 7.22399902-45.31188965 7.22399902-2.40734863 0-4.77905273-.0569458-7.11486816-.15399169l-20.65161133 14.58203125 6.61962891-15.79003907c-21.77294922-2.89294433-37.82397461-10.12194824-40.25720215-18.82098388-22.86206055-11.70898438-8.35534668-25.16296387 2.16186523-32.06597901-1.60925293-2.00299072-2.48632812-4.12103271-2.48632812-6.31500244 0-12.42102051 27.63562012-22.49102783 61.72851562-22.49102783z" fill="#222"/></g><path d="m-35.355.984a.738.738 0 0 1 -.282-.184.738.738 0 0 1 -.187-.281v-.378a50.546 50.546 0 0 0 .961-6.7q.258-3.4.586-6.422h-.187l-.4.2a.788.788 0 0 1 -.492.059.7.7 0 0 1 -.281-.2.836.836 0 0 1 -.187-.293v-.375a1.162 1.162 0 0 1 .281-.352 1.791 1.791 0 0 1 .375-.258l.891-.281q0-.234.023-.492a.533.533 0 0 1 .211-.4.722.722 0 0 1 .281-.117 2.019 2.019 0 0 1 .328-.023.738.738 0 0 1 .281.188.738.738 0 0 1 .188.281l.047.328h.281a10.071 10.071 0 0 1 1.219-.117q.633-.023 1.242-.023a4.564 4.564 0 0 1 1.664.4 4.87 4.87 0 0 1 1.43 1.008 2.7 2.7 0 0 1 .445 1.23 8 8 0 0 1 .023 1.371 5.48 5.48 0 0 1 -.609 1.43 6.533 6.533 0 0 1 -1.218 1.517 24.776 24.776 0 0 1 -2.449 1.641 8.571 8.571 0 0 1 -2.73 1.031q-.187 1.547-.352 3.082a10.6 10.6 0 0 1 -.774 2.99.722.722 0 0 1 -.281.117 2.019 2.019 0 0 1 -.328.023zm3.867-8.461q.888-.515 1.758-1.123a4.417 4.417 0 0 0 1.382-1.6 4.458 4.458 0 0 0 .328-.82 2.993 2.993 0 0 0 .047-.961l-.375-.8a3.376 3.376 0 0 0 -1.477-.633 7.705 7.705 0 0 0 -1.711-.094l-1.336.141q-.094 1.8-.328 3.352t-.328 3.328h.141a6.225 6.225 0 0 0 .973-.352q.457-.203.926-.438zm9.8 6.141-.656-.422a9.649 9.649 0 0 1 -.328-2.473q0-1.23-.023-2.52l.047-.047.07-2.531.352-.727h.469l.539.3a1.729 1.729 0 0 1 .188.422 1.042 1.042 0 0 1 .023.492l-.234.492-.07 2.461-.047.234q.023.961.059 1.922t.152 1.969l-.164.445zm-.961-9.609-.609-.352a2.336 2.336 0 0 1 -.164-.48 2.59 2.59 0 0 1 -.047-.527l.258-.352a8.542 8.542 0 0 0 1.078-.785 2.244 2.244 0 0 1 1.266-.527l.656.328a2.861 2.861 0 0 1 .2.445.875.875 0 0 1 .035.469l-.164.375a3.251 3.251 0 0 0 -1.254.645 5.167 5.167 0 0 1 -1.258.761zm9.563 9.3a5.558 5.558 0 0 1 -1.687-.551 4.811 4.811 0 0 1 -1.43-1.137 3.928 3.928 0 0 1 -.656-1.582 8 8 0 0 1 -.094-1.746 6.157 6.157 0 0 1 .5-1.641 6.366 6.366 0 0 1 .953-1.448 5.172 5.172 0 0 1 1.488-1.09 3.8 3.8 0 0 1 1.84-.34 5.027 5.027 0 0 1 .984.434 4.149 4.149 0 0 1 .867.668q.164.258.293.5a.985.985 0 0 1 .082.6l-.141.422h-.375l-.609-.4a1 1 0 0 0 -.27-.352 1.824 1.824 0 0 0 -.293-.187l-.633-.094a7.6 7.6 0 0 0 -1.184.527 4.178 4.178 0 0 0 -1.069.862 5.267 5.267 0 0 0 -.78 1.239 4.038 4.038 0 0 0 -.34 1.406 6.193 6.193 0 0 0 .152.914 1.346 1.346 0 0 0 .48.727 2.826 2.826 0 0 0 1.242.574 5.876 5.876 0 0 0 1.453.082 9.9 9.9 0 0 0 1.91-.668 10.476 10.476 0 0 0 1.673-.974v-.187h.516l.514.287q.117.258.2.445a.969.969 0 0 1 .035.516l-.234.375a10.912 10.912 0 0 1 -2.5 1.43 6.123 6.123 0 0 1 -2.891.393zm9.043 1.879-.562-.352a6.953 6.953 0 0 1 -.34-1.969 14.77 14.77 0 0 0 -.152-1.9 1.083 1.083 0 0 1 -.4-.3 1.42 1.42 0 0 1 -.3-.539 3.3 3.3 0 0 1 -.082-.621q-.012-.316-.012-.715l.629-1.038.117-2.344q.094-1.547.246-3.094a18.152 18.152 0 0 1 .574-3.07h.469l.516.3a2.346 2.346 0 0 1 .188.434.9.9 0 0 1 .023.457 24.006 24.006 0 0 0 -.5 3.117q-.152 1.594-.223 3a10.761 10.761 0 0 1 2.652-1.713q1.54-.715 3.18-1.348l.539.352a1.442 1.442 0 0 1 .2.434 1.1 1.1 0 0 1 .012.48l-.164.352q-1.567.702-3.047 1.429a15.757 15.757 0 0 0 -2.836 1.8 2.794 2.794 0 0 1 -.4.41.449.449 0 0 0 -.164.48l.07.867q.82.281 1.8.574a8.433 8.433 0 0 0 2.039.34h1.271l.539.3a3.129 3.129 0 0 0 .161.443.768.768 0 0 1 .023.5l-.187.4-.328.023-.7-.094h-1.265a17.066 17.066 0 0 1 -1.793-.429q-.9-.27-1.535-.48l.023-.117q.07.891.105 1.57t.157 1.64l-.187.422zm20.883-.961a4.55 4.55 0 0 1 -1.734-.633 5.909 5.909 0 0 1 -1.453-1.289 7.256 7.256 0 0 1 -.738-1.957 10.921 10.921 0 0 1 -.246-2.1l.117-2.414q.211-1.219.516-2.367a9.3 9.3 0 0 1 .867-2.156.736.736 0 0 1 .41-.152 3 3 0 0 1 .457.012l.68.375a2.11 2.11 0 0 1 .176.516 2.21 2.21 0 0 1 .035.609l-.187.141-.023.094-.422.211a13.686 13.686 0 0 0 -.844 2.484 12.7 12.7 0 0 0 -.328 2.719 10.719 10.719 0 0 0 .211 1.863 3.6 3.6 0 0 0 .844 1.676q.328.211.645.422a1.45 1.45 0 0 0 .738.234q.656-.211 1.336-.5a5.1 5.1 0 0 0 1.266-.785 9.8 9.8 0 0 0 1.559-2.191 9.221 9.221 0 0 0 .855-2.52 6.021 6.021 0 0 0 -.34-2.18q-.363-1.008-.691-2.062l.094-.562.469.023.68.375a6.879 6.879 0 0 1 1.09 2.8 13.557 13.557 0 0 1 .082 3.152 10.157 10.157 0 0 1 -1 2.66 10.412 10.412 0 0 1 -1.723 2.329 7.068 7.068 0 0 1 -1.547.914 3.77 3.77 0 0 1 -1.851.259zm8.672 1.711a.738.738 0 0 1 -.282-.184.738.738 0 0 1 -.187-.281v-.378a50.546 50.546 0 0 0 .957-6.703q.258-3.4.586-6.422h-.186l-.4.2a.788.788 0 0 1 -.492.059.7.7 0 0 1 -.281-.2.836.836 0 0 1 -.187-.293v-.375a1.162 1.162 0 0 1 .281-.352 1.791 1.791 0 0 1 .379-.255l.891-.281q0-.234.023-.492a.533.533 0 0 1 .211-.4.722.722 0 0 1 .281-.117 2.019 2.019 0 0 1 .328-.023.738.738 0 0 1 .281.188.738.738 0 0 1 .188.281l.047.328h.281a10.071 10.071 0 0 1 1.219-.117q.633-.023 1.242-.023a4.564 4.564 0 0 1 1.664.4 4.87 4.87 0 0 1 1.43 1.008 2.7 2.7 0 0 1 .445 1.23 8 8 0 0 1 .023 1.371 5.48 5.48 0 0 1 -.609 1.43 6.533 6.533 0 0 1 -1.219 1.517 24.776 24.776 0 0 1 -2.449 1.641 8.571 8.571 0 0 1 -2.73 1.031q-.187 1.547-.352 3.082a10.6 10.6 0 0 1 -.774 2.99.722.722 0 0 1 -.281.117 2.019 2.019 0 0 1 -.328.023zm3.867-8.461q.891-.516 1.758-1.125a4.417 4.417 0 0 0 1.383-1.598 4.458 4.458 0 0 0 .328-.82 2.993 2.993 0 0 0 .047-.961l-.375-.8a3.376 3.376 0 0 0 -1.477-.633 7.705 7.705 0 0 0 -1.711-.094l-1.332.149q-.094 1.8-.328 3.352t-.332 3.327h.141a6.225 6.225 0 0 0 .973-.352q.456-.21.925-.445zm-66.586 27.657-.469-.234a1.4 1.4 0 0 1 -.211-.4.855.855 0 0 1 -.023-.445l.234-.469a4.132 4.132 0 0 1 1.652-.422 15.512 15.512 0 0 0 1.746-.187h2.391l.047-.047h2.578l.047-.047h2.625a13.038 13.038 0 0 0 1.77.07 4.2 4.2 0 0 1 1.723.3 1.4 1.4 0 0 1 .211.4.855.855 0 0 1 .023.445l-.234.469a1.12 1.12 0 0 1 -.539.234 4.158 4.158 0 0 1 -.633.047l-2.461-.141h-2.484l-.047.047h-2.579l-.047.047h-2.343q-.75.094-1.477.164t-1.5.169zm3.07-7.547-.469-.234a1.4 1.4 0 0 1 -.211-.4.855.855 0 0 1 -.023-.445l.234-.469a1.8 1.8 0 0 1 1.055-.328q.586 0 1.148-.047h3.891q.281.047.539.07a.7.7 0 0 1 .445.211 2.05 2.05 0 0 1 .234.4.849.849 0 0 1 .047.492l-.234.469a.936.936 0 0 1 -.516.211q-.281.023-.609.023l-.047-.047h-3.7zm14.93 9.773a2.319 2.319 0 0 1 -.352-.117 1.89 1.89 0 0 1 -.3-.164 1.4 1.4 0 0 1 -.211-.4.936.936 0 0 1 -.023-.469l.234-.469a10.635 10.635 0 0 1 2.273-.328l2.367-.094a4.068 4.068 0 0 1 .609-1.8 5.18 5.18 0 0 0 .7-1.8h-1.36q-.75.047-1.477.141l-1.477.188a2.319 2.319 0 0 1 -.352-.117 1.89 1.89 0 0 1 -.3-.164 1.4 1.4 0 0 1 -.211-.4.855.855 0 0 1 -.023-.445l.234-.469a8.18 8.18 0 0 1 1.758-.375l1.8-.187h2.344l.7.375a1.12 1.12 0 0 1 .328.68 3.6 3.6 0 0 1 0 .82q-.281.891-.633 1.758t-.773 1.711h.141l2.25-.094.469.234a2.05 2.05 0 0 1 .234.4.849.849 0 0 1 .047.492l-.234.492a1.034 1.034 0 0 1 -.4.188q-.211.047-.445.094l-.469-.047zm15.375-6.7q-.187-.07-.363-.141a1.72 1.72 0 0 1 -.316-.164 1.857 1.857 0 0 1 -.189-.401.936.936 0 0 1 -.023-.469l.258-.469a8.03 8.03 0 0 1 2.039-.328q.984-.023 2.109-.047l2.039.023 1.172-.023.75.117 2.438.047q.234.047.469.105a1.167 1.167 0 0 1 .422.2 2.218 2.218 0 0 1 .2.41.976.976 0 0 1 .035.5l-.281.469a.678.678 0 0 1 -.469.2q-.281.012-.562.012l-.048-.047-2.391-.047-1.641-.117-.047.023-2.086-.023zm17.461 5.766-.469-.258a1.4 1.4 0 0 1 -.211-.4.855.855 0 0 1 -.023-.445.951.951 0 0 1 .234-.445q.188-.211.328-.4 1.969-1.922 3.75-4.031a48.167 48.167 0 0 0 3.281-4.359v-.141h-.937q-1.359.094-2.672.211a15.884 15.884 0 0 0 -2.578.445l-.469-.234a1.4 1.4 0 0 1 -.211-.4.855.855 0 0 1 -.023-.445l.234-.469a10.188 10.188 0 0 1 3.445-.809q1.8-.105 3.633-.152a3.082 3.082 0 0 1 .75.094 1.491 1.491 0 0 1 .656.352 1.613 1.613 0 0 1 .281.539 1.436 1.436 0 0 1 .047.633 7.541 7.541 0 0 1 -.609 1.359q-.375.656-.8 1.266h-.094l-.234.422h-.094l-.328.609h-.094l-.234.422a5.4 5.4 0 0 0 -.445.4 1.243 1.243 0 0 0 -.3.492l.328.188a1.734 1.734 0 0 0 .563.445q.328.164.656.352v.087l.422.234 1.313.891.375.328a4.37 4.37 0 0 0 .7.492 6.849 6.849 0 0 1 .75.492l.492.563.047.609-.234.469a1.775 1.775 0 0 1 -.422.211.855.855 0 0 1 -.445.023l-.656-.375q-1.125-.844-2.273-1.687a25.619 25.619 0 0 0 -2.367-1.547l-.422-.422-1.5 1.781-.985 1.038-.422.469-.187.188-.281.141v.094l-.141.141a3.426 3.426 0 0 1 -.492.41.891.891 0 0 1 -.633.126zm19.617-3.094-.422-.07a2.937 2.937 0 0 1 -.27-.258.511.511 0 0 1 -.105-.352q.3-2.648.574-5.3t.645-5.156a1.153 1.153 0 0 1 .34-.27.912.912 0 0 1 .434-.105l.516.07a1.066 1.066 0 0 1 .293.258.737.737 0 0 1 .129.375q-.3 2.438-.6 5.063t-.715 5.3a1.622 1.622 0 0 1 -.352.27 1.9 1.9 0 0 1 -.467.172zm-.727 4.781-.75-.516a2.05 2.05 0 0 1 -.234-.4q-.094-.211-.234-.492l.047-.281.094-.609.234-.469a2.235 2.235 0 0 1 .727-.258q.4-.07.773-.117a4.2 4.2 0 0 1 .516.117 1 1 0 0 1 .422.258 1.565 1.565 0 0 1 .281.75l.094.844-.234.469h-.095v.094q-.375.234-.75.445a1.5 1.5 0 0 1 -.89.162z" fill="#222" transform="matrix(.99918824 .03475415 -.03475415 .99918824 85.61831 44.46054)"/></svg>