<svg height="85.237" viewBox="0 0 163 85.237" width="163" xmlns="http://www.w3.org/2000/svg"><path d="m0 0h163v82.325h-163z" fill="none"/><g fill="#222"><path d="m-38.74-28.92q0 .44.02 1.58t.02 1.74a14.569 14.569 0 0 1 -.1 1.52 9.584 9.584 0 0 1 -.34 1.72q-.04.2-.64 2.42a30.671 30.671 0 0 1 -1.04 3.3 52.46 52.46 0 0 1 -7.72 12.52 66.949 66.949 0 0 1 -8.88 9.2 39.117 39.117 0 0 1 -6.04 4.28 17.523 17.523 0 0 1 -4.04 1.8 12.941 12.941 0 0 1 -2.84.44 3.685 3.685 0 0 1 -3.2-1.68 7.4 7.4 0 0 0 -.46-.6q-.3-.36-.54-.68a5.848 5.848 0 0 1 -.4-.6 5.415 5.415 0 0 1 -.68-2.08 20.64 20.64 0 0 1 .36-4.52q.2-1 .52-2.16t.64-2q.32-.84.8-2.12t.72-2q.04-.12 1.04-2.28-.24-.32-.62-.88t-.68-.96q-.3-.4-.58-.72a2.937 2.937 0 0 1 -.72-1.6 4.6 4.6 0 0 1 .08-1.72 12.293 12.293 0 0 1 .72-2.9 18.682 18.682 0 0 1 1.14-2.54q.58-1.04 1.5-2.56a47.616 47.616 0 0 1 7.4-9.04 32.614 32.614 0 0 1 7.04-5.32 13.759 13.759 0 0 1 5.92-1.76 9.962 9.962 0 0 1 8.28 3.2 11.827 11.827 0 0 1 2.76 5 5.033 5.033 0 0 0 .16.56 5.031 5.031 0 0 1 .16.56 3.639 3.639 0 0 1 .24.88zm-2.76 4.28q.04-.24.16-1.1t.14-1.24q.02-.38.04-1.06a7.289 7.289 0 0 0 -.06-1.24 8.4 8.4 0 0 0 -.24-1.12.614.614 0 0 1 -.08-.24 4.584 4.584 0 0 0 -2.04-3.72 8.827 8.827 0 0 0 -8.28-1.52 20.344 20.344 0 0 0 -6.68 3.76 43.506 43.506 0 0 0 -6.84 6.96 37.247 37.247 0 0 0 -6.12 10.4 3.6 3.6 0 0 0 .16 2.56.834.834 0 0 0 1 .56q.72-1.36.76-1.44.2-.32 1.06-1.72t1.3-2.16a36.117 36.117 0 0 1 5.48-7.28 3.733 3.733 0 0 1 2.32-1.16q.16.2.38.44t.48.52q.26.28.46.48-.08.32-.18.84t-.14.76q-.2-.04-.48-.12a1.716 1.716 0 0 0 -.44-.08 64.68 64.68 0 0 0 -5.12 6.76q-2.56 3.84-2.6 5.12 1.2-.16 1.28-.16a22.424 22.424 0 0 0 6.48-1.32q1.04-.36 5.6-2.16a4.967 4.967 0 0 1 3.04-.4 1.854 1.854 0 0 1 -.68 1.76 16.354 16.354 0 0 1 -2.72 2 36.318 36.318 0 0 1 -7.48 2.64 19.379 19.379 0 0 1 -7.12.24 6.285 6.285 0 0 0 -.36.68 58.049 58.049 0 0 0 -3.08 8.16 17.383 17.383 0 0 0 -.84 4.76 11.049 11.049 0 0 0 .44 2.28 1.444 1.444 0 0 0 1.36 1 6.34 6.34 0 0 0 3.44-.68 34.667 34.667 0 0 0 9.28-6.2 68.673 68.673 0 0 0 8.32-9 54.523 54.523 0 0 0 6.08-9.68q.16-.4.44-1.16t.4-1.04a21.983 21.983 0 0 0 1.68-5.68zm15.24 15.4a2.984 2.984 0 0 1 .16 2.48 12.719 12.719 0 0 1 -4.36 6.2q-.08.08-1.44 1.16a2.239 2.239 0 0 1 -.78-.14 2.619 2.619 0 0 1 -.58-.28 7.4 7.4 0 0 1 -.62-.52 6.781 6.781 0 0 0 -.54-.46 2.2 2.2 0 0 1 1.24-1.48 10.724 10.724 0 0 0 4.36-5.64q-.84.48-.88.48a29.815 29.815 0 0 0 -4.92 6.04 49.144 49.144 0 0 0 -4.96 10.76q-.72 2.08-2.08 5.96t-1.72 4.88q-.12.4-.4 1.28t-.44 1.32a1.825 1.825 0 0 1 -1.16 1.28q-.96-.52-2.12-1.16a6.822 6.822 0 0 1 .44-2.44q.16-.48.42-1.42a10.724 10.724 0 0 1 .42-1.3q.16-.52 1.3-3.78t1.66-4.98q1.4-4.4 2.28-8.28.32-1.32 1.64-8.4a2.724 2.724 0 0 0 .1-.78 3.877 3.877 0 0 1 .1-.86q.08-.28.96-3.12.12-.04.26-.1a1.255 1.255 0 0 1 .24-.08q.1-.02.18-.04a.782.782 0 0 0 .16-.06 1.613 1.613 0 0 1 .88.66 1.571 1.571 0 0 1 .36 1.06 7.552 7.552 0 0 1 -.16 1.56q-.08.6-.38 2.08t-.42 2.28v1.6a6.714 6.714 0 0 0 .6-.72q.96-1.32 1.52-2.06t1.5-1.78a17 17 0 0 1 1.82-1.76 11.288 11.288 0 0 1 1.96-1.28 2.154 2.154 0 0 1 1.4-.32 1.915 1.915 0 0 1 1.08.84 15.83 15.83 0 0 1 .92 1.32zm17.04-.4a5.65 5.65 0 0 1 -.84 3.36 16.986 16.986 0 0 1 -4.72 5.12 8.537 8.537 0 0 1 -3.08 1.4 4.829 4.829 0 0 1 -2.86-.22 4.586 4.586 0 0 1 -2.18-1.86 12.669 12.669 0 0 1 -.92-1.56 4.8 4.8 0 0 1 .2-3.56 8.942 8.942 0 0 1 3-4.16.929.929 0 0 0 .24-.26 1.247 1.247 0 0 1 .28-.3 9.043 9.043 0 0 1 1.48-1 2.3 2.3 0 0 1 3.28 1.16.7.7 0 0 0 .08.2.931.931 0 0 0 .16.24 3.2 3.2 0 0 1 .58 1.44 2.966 2.966 0 0 1 -.14 1.42 4.7 4.7 0 0 1 -.66 1.22 4.46 4.46 0 0 1 -.98.96 5.882 5.882 0 0 1 -5 1.32h-.36a2.365 2.365 0 0 0 -.1 1.42 1.489 1.489 0 0 0 .98.74 4.264 4.264 0 0 0 2.56.16 9.142 9.142 0 0 0 3.68-2.16 13.635 13.635 0 0 0 4.04-5.8 4.074 4.074 0 0 1 .44-.56 1.219 1.219 0 0 1 .84 1.28zm-7.96-.88a7.356 7.356 0 0 0 -3.24 3.2 3.837 3.837 0 0 0 2.48-1.02 2.471 2.471 0 0 0 .76-2.18zm20.88 1.2a1.855 1.855 0 0 1 .4 2.24 4.086 4.086 0 0 1 -.88 1.12q-1.36 1.12-3.2 2.48a4.01 4.01 0 0 1 -3.16.56 4.652 4.652 0 0 1 -.46-.54 2.868 2.868 0 0 1 -.36-.66q-.14-.36-.22-.6a5.076 5.076 0 0 1 -.16-.74q-.08-.5-.1-.7t-.08-.78q-.06-.58-.06-.74a14.437 14.437 0 0 0 -2.2 2.16q-2.04 2.32-2.4 2.72a2.8 2.8 0 0 1 -1.76 1.08 1.689 1.689 0 0 1 -.7-.54 5.208 5.208 0 0 1 -.56-.9 4.128 4.128 0 0 0 -.46-.76q.16-.48.4-1.28t.42-1.36q.18-.56.42-1.26t.44-1.3q.16-.4.24-.58a3.5 3.5 0 0 1 .28-.48 1.1 1.1 0 0 1 .48-.42 1.843 1.843 0 0 1 .72-.12 3.847 3.847 0 0 1 .64 2.68q2.84-2.88 3.2-3.2a4.1 4.1 0 0 1 1.56-.84 1.19 1.19 0 0 1 1.6.72 5.623 5.623 0 0 1 .4 4.04q-.04.08-.2 1.44a8.532 8.532 0 0 0 3.16-1.68 18.236 18.236 0 0 1 2.6-1.76zm25.56-17.56a27.289 27.289 0 0 0 .84-5.84q.08-2.24.04-2.84a1.154 1.154 0 0 0 -.1-.44q-.1-.24-.24-.52a3.6 3.6 0 0 1 -.18-.4 3.151 3.151 0 0 0 -2.96 1 35.941 35.941 0 0 0 -3.2 3.64 78.721 78.721 0 0 0 -7.56 12.56q-.48 1.04-1.2 2.58t-1.24 2.64q-.52 1.1-1.16 2.52t-1.2 2.62a55.353 55.353 0 0 0 -3.8 12.64 18.3 18.3 0 0 0 -.24 3.44 3.041 3.041 0 0 0 .8 2.12 8.279 8.279 0 0 0 3.44-.8 18.1 18.1 0 0 0 3.4-1.98q1.6-1.18 3.64-2.98 1.64-1.44 3.58-3.42t2.9-3.04q.96-1.06 3.32-3.7a24.1 24.1 0 0 1 2.12-2 2.186 2.186 0 0 1 1.8-.6 3.308 3.308 0 0 1 -.2 2.68 20.023 20.023 0 0 1 -3.72 5.12q-.4.4-.98 1.02t-1 1.04q-.42.42-.98 1t-1.02 1.04l-1 1q-.54.54-1.02 1t-1.02.96q-.54.5-1.06.96t-1.08.94a25.959 25.959 0 0 1 -7.88 4.56q-2.92 1.12-4.64-1.08l-.86-.86a4.716 4.716 0 0 1 -1.02-1.34 3.16 3.16 0 0 0 -.22-.6 6.525 6.525 0 0 1 -.28-.72 3.846 3.846 0 0 1 -.14-.6 14.961 14.961 0 0 1 .36-5.16 13.808 13.808 0 0 0 .48-2.02q.24-1.34.4-1.9a71.482 71.482 0 0 1 3.8-10.44q2.2-4.88 5.36-11.08a85.536 85.536 0 0 1 4.76-7.76 41.4 41.4 0 0 1 4.92-6.24 8.274 8.274 0 0 1 3.36-2.04q1.64-.56 3.48 1.28a7.368 7.368 0 0 1 2.16 7.36q-.24.92-.58 1.94t-.82 2.3q-.48 1.28-.68 1.92-.24.68-.76 2.16h-.14a.52.52 0 0 1 -.16-.02.443.443 0 0 0 -.14-.02.279.279 0 0 1 -.12-.02.313.313 0 0 1 -.08-.06 2.4 2.4 0 0 1 -.52-1.16 8.137 8.137 0 0 1 .24-2.36zm15.68 20.48q-.52 1.84-.56 1.96a9.746 9.746 0 0 0 -.08 5.52v.26a1.081 1.081 0 0 1 -.08.32q-.08.22-.12.34a1.739 1.739 0 0 1 -1.72-1.32q-.08-.28-.84-3.48-.36.24-.92.7t-.92.74a7.293 7.293 0 0 1 -.94.6 5.13 5.13 0 0 1 -1.08.46 4.32 4.32 0 0 1 -1.16.14 4.733 4.733 0 0 1 -1.34-.2q-1.24-2.44-1.32-2.64-.72-1.64.8-3.64a24.152 24.152 0 0 1 2.64-2.8 6.462 6.462 0 0 1 2.8-1.56 1.956 1.956 0 0 1 1.46.16 2.429 2.429 0 0 1 1.02 1.08q0 .04.4 1.04.2.04.66.16a7.027 7.027 0 0 0 .74.16q.12.4.32 1.16t.24.84zm-3.64-.32a1.61 1.61 0 0 0 .28-1.64 6.222 6.222 0 0 0 -2.26 1.14 10.091 10.091 0 0 0 -2.18 2.02 3.384 3.384 0 0 0 -.88 2.08h.48a20.6 20.6 0 0 0 4.56-3.6zm23.92-5.36.56.32a1.387 1.387 0 0 1 -.92 1.16q-1.64.64-1.84.72a47.508 47.508 0 0 0 -9.04 3.72q-.04.04-.8.6a10.2 10.2 0 0 1 3.6 3.08 6.066 6.066 0 0 1 1 4.6 19.587 19.587 0 0 1 -2.52 6.96 19.385 19.385 0 0 1 -5.36 6.48q-.16.12-1.96 1a1.379 1.379 0 0 1 -1.48-.16 10.665 10.665 0 0 1 -2.08-1.8 1.344 1.344 0 0 1 -.24-.5 6.019 6.019 0 0 1 -.14-.84 3.206 3.206 0 0 0 -.1-.62 3.094 3.094 0 0 1 .08-.92l.28-1.82q.2-1.3.38-2.24t.38-1.78q1.04-4.12 2.64-9.36.44-1.36 2.6-7.76.08-.2.2-.46l.24-.52q.12-.26.2-.46.04-.12.68-2.08a29.645 29.645 0 0 1 1.08-2.92q.16-.4.62-2a8.509 8.509 0 0 1 .98-2.36 3.417 3.417 0 0 1 .12-.86q.12-.46.22-.76t.3-.82q.2-.52.28-.76a17.866 17.866 0 0 1 1.88-3.96 1.623 1.623 0 0 1 .9-.66 1.517 1.517 0 0 1 1.06.02 2.014 2.014 0 0 1 .94.88 1.81 1.81 0 0 1 .34 1.2l-.24.36q-.44-.04-.88-.12a3.537 3.537 0 0 0 -.34.48q-.14.24-.28.52a4.83 4.83 0 0 0 -.22.5q-.08.22-.2.58t-.16.52q-.52 1.36-1.2 3.44-.12.48-.4 1.44t-.4 1.4l-.16.48q-.08.24-.16.46t-.18.48a5.051 5.051 0 0 0 -.16.48 3.8 3.8 0 0 1 -.16.46q-.1.24-.18.48-1.2 3.52-1.96 5.8-.04.08-.68 2.2 2.48-1.2 2.6-1.24a37.5 37.5 0 0 1 8.08-2.92 11.97 11.97 0 0 1 2.2-.12zm-10.72 10a9.339 9.339 0 0 0 -3.76-1.16q-.2.64-.64 1.92t-.74 2.26q-.3.98-.54 1.86-.8 2.96-1.88 8.16a4.88 4.88 0 0 0 .08 2.68q.68-.24.72-.24a13.221 13.221 0 0 0 3.32-3.44 29.739 29.739 0 0 0 2.68-4.6 18.664 18.664 0 0 0 1.24-3.8 5.031 5.031 0 0 0 .18-1.8 3.315 3.315 0 0 0 -.66-1.84zm24-7.56a5.65 5.65 0 0 1 -.84 3.36 16.986 16.986 0 0 1 -4.72 5.12 8.537 8.537 0 0 1 -3.08 1.4 4.829 4.829 0 0 1 -2.86-.22 4.586 4.586 0 0 1 -2.18-1.86 12.669 12.669 0 0 1 -.92-1.56 4.8 4.8 0 0 1 .2-3.56 8.942 8.942 0 0 1 3-4.16.929.929 0 0 0 .24-.26 1.247 1.247 0 0 1 .28-.3 9.043 9.043 0 0 1 1.48-1 2.3 2.3 0 0 1 3.28 1.16.7.7 0 0 0 .08.2.931.931 0 0 0 .16.24 3.2 3.2 0 0 1 .58 1.44 2.966 2.966 0 0 1 -.14 1.42 4.7 4.7 0 0 1 -.66 1.22 4.46 4.46 0 0 1 -.98.96 5.882 5.882 0 0 1 -5 1.32h-.36a2.365 2.365 0 0 0 -.1 1.42 1.489 1.489 0 0 0 .98.74 4.264 4.264 0 0 0 2.56.16 9.142 9.142 0 0 0 3.68-2.16 13.635 13.635 0 0 0 4.04-5.8 4.074 4.074 0 0 1 .44-.56 1.219 1.219 0 0 1 .84 1.28zm-7.96-.88a7.356 7.356 0 0 0 -3.24 3.2 3.837 3.837 0 0 0 2.48-1.02 2.471 2.471 0 0 0 .76-2.18z" transform="matrix(.99026807 -.1391731 .1391731 .99026807 81.662 50.864)"/><path d="m-44.92-2.34h2.73v-1.05h-2.73zm10.24 2.48a2.323 2.323 0 0 0 1.55-.72h.03l.12.58h1.19v-7.98h-1.47v1.97l.06.88a1.927 1.927 0 0 0 -1.42-.61c-1.21 0-2.35 1.12-2.35 2.95s.9 2.93 2.29 2.93zm.38-1.21c-.74 0-1.16-.58-1.16-1.74 0-1.12.53-1.72 1.16-1.72a1.488 1.488 0 0 1 1.04.42v2.46a1.246 1.246 0 0 1 -1.04.58zm5.09 1.07h1.46v-5.6h-1.46zm.74-6.5a.814.814 0 0 0 .87-.8.8.8 0 0 0 -.87-.8.806.806 0 0 0 -.88.8.817.817 0 0 0 .88.8zm4.9 6.64c1.46 0 2.23-.79 2.23-1.77 0-1.04-.82-1.41-1.56-1.69-.59-.22-1.14-.37-1.14-.78 0-.32.24-.54.74-.54a2.156 2.156 0 0 1 1.21.48l.66-.89a3.134 3.134 0 0 0 -1.91-.69c-1.26 0-2.08.71-2.08 1.72 0 .93.82 1.36 1.53 1.63.59.23 1.17.42 1.17.84 0 .35-.25.59-.81.59a2.431 2.431 0 0 1 -1.5-.61l-.67.92a3.529 3.529 0 0 0 2.13.79zm4.35-.14h1.46v-3.85a1.609 1.609 0 0 1 1.17-.63c.55 0 .79.31.79 1.17v3.31h1.47v-3.49c0-1.41-.52-2.25-1.73-2.25a2.549 2.549 0 0 0 -1.76.82l.06-1.05v-2.01h-1.46zm11.58-2.05a1.422 1.422 0 0 1 .61-1.04 10.475 10.475 0 0 0 1.67 1.73 2.005 2.005 0 0 1 -1.08.37 1.082 1.082 0 0 1 -1.2-1.06zm.74-3.61c0-.55.31-.9.74-.9.39 0 .56.27.56.64 0 .54-.45.9-1.03 1.25a2.307 2.307 0 0 1 -.27-.99zm4.75 4.6a4.493 4.493 0 0 1 -1.31-.53 8.133 8.133 0 0 0 1.25-2.54h-1.33a5.581 5.581 0 0 1 -.91 1.88 9.368 9.368 0 0 1 -1.6-1.54c.79-.55 1.59-1.16 1.59-2.14a1.564 1.564 0 0 0 -1.72-1.61 1.844 1.844 0 0 0 -1.94 1.88 3.492 3.492 0 0 0 .47 1.6 2.456 2.456 0 0 0 -1.39 2.1 2.158 2.158 0 0 0 2.42 2.1 3.581 3.581 0 0 0 2.27-.78 5.976 5.976 0 0 0 1.84.78zm7.64 1.2a2.778 2.778 0 0 0 1.83-.68l-.58-.97a1.739 1.739 0 0 1 -1.09.45c-.81 0-1.39-.68-1.39-1.73s.58-1.75 1.43-1.75a1.278 1.278 0 0 1 .86.37l.7-.95a2.448 2.448 0 0 0 -1.63-.62 2.8 2.8 0 0 0 -2.86 2.95 2.676 2.676 0 0 0 2.73 2.93zm5.93 0a2.729 2.729 0 0 0 2.69-2.93 2.735 2.735 0 0 0 -2.69-2.95 2.735 2.735 0 0 0 -2.69 2.95 2.729 2.729 0 0 0 2.69 2.93zm0-1.2c-.76 0-1.19-.68-1.19-1.73s.43-1.75 1.19-1.75 1.19.69 1.19 1.75-.43 1.73-1.19 1.73zm8.13-6.86a2.936 2.936 0 0 0 -1.06-.2 1.816 1.816 0 0 0 -1.95 2.07v.46l-.75.06v1.09h.75v4.44h1.47v-4.44h1.05v-1.16h-1.05v-.48c0-.62.24-.88.68-.88a1.825 1.825 0 0 1 .59.12zm4.72 0a2.936 2.936 0 0 0 -1.06-.2 1.816 1.816 0 0 0 -1.95 2.07v.46l-.75.06v1.09h.75v4.44h1.47v-4.44h1.05v-1.16h-1.05v-.48c0-.62.24-.88.68-.88a1.825 1.825 0 0 1 .59.12zm3.77 8.06a3.533 3.533 0 0 0 1.96-.62l-.5-.9a2.308 2.308 0 0 1 -1.26.39 1.471 1.471 0 0 1 -1.55-1.4h3.45a2.732 2.732 0 0 0 .07-.67c0-1.55-.8-2.68-2.34-2.68a2.741 2.741 0 0 0 -2.61 2.95 2.714 2.714 0 0 0 2.78 2.93zm-1.37-3.5a1.263 1.263 0 0 1 1.22-1.24c.72 0 1.06.48 1.06 1.24zm8.18 3.5a3.533 3.533 0 0 0 1.96-.62l-.5-.9a2.308 2.308 0 0 1 -1.26.39 1.471 1.471 0 0 1 -1.55-1.4h3.45a2.732 2.732 0 0 0 .07-.67c0-1.55-.8-2.68-2.34-2.68a2.741 2.741 0 0 0 -2.61 2.95 2.714 2.714 0 0 0 2.78 2.93zm-1.37-3.5a1.263 1.263 0 0 1 1.22-1.24c.72 0 1.06.48 1.06 1.24zm8.72 1.02h2.73v-1.05h-2.73z" transform="translate(118 82.237)"/></g></svg>